<svg width="24" height="24" viewBox="0 0 24 24" fill="none" xmlns="http://www.w3.org/2000/svg">
<path d="M7.95602 10.9724L11.9184 7.01166L15.8824 10.9756L18.1866 8.66976L11.9184 2.3999L5.65015 8.66815L7.95602 10.9724Z" fill="#F3BA2F"/>
<path d="M1.71558 12.6015L4.01984 10.2957L6.32572 12.6015L4.01984 14.9058L1.71558 12.6015Z" fill="#F3BA2F"/>
<path d="M7.95602 14.2289L11.9184 18.1913L15.8824 14.2273L18.1883 16.5299L11.92 22.7998L5.65015 16.5348L7.95602 14.2289Z" fill="#F3BA2F"/>
<path d="M17.5087 12.6015L19.8129 10.2957L22.1188 12.5999L19.8129 14.9074L17.5087 12.6015Z" fill="#F3BA2F"/>
<path d="M14.2559 12.6L11.9178 10.2603L10.1888 11.9893L9.989 12.1875L9.57971 12.5967L11.9178 14.9332L14.2559 12.6016V12.6Z" fill="#F3BA2F"/>
</svg>
