<svg width="24" height="24" viewBox="0 0 24 24" fill="none" xmlns="http://www.w3.org/2000/svg">
<path d="M17.8138 7.07673C16.7371 6.57481 15.5714 6.21052 14.3571 6.00004C14.3464 5.9997 14.3358 6.00169 14.326 6.00589C14.3163 6.01009 14.3075 6.01638 14.3004 6.02432C14.1547 6.29147 13.9847 6.63958 13.8713 6.90673C12.5834 6.71244 11.2735 6.71244 9.98552 6.90673C9.87219 6.63148 9.70218 6.29147 9.54837 6.02432C9.54027 6.00813 9.51599 6.00004 9.4917 6.00004C8.27738 6.21052 7.11973 6.57481 6.03494 7.07673C6.02684 7.07673 6.01875 7.08483 6.01065 7.09292C3.80869 10.3878 3.20153 13.5936 3.50106 16.767C3.50106 16.7832 3.50916 16.7994 3.52535 16.8075C4.98253 17.8761 6.38304 18.5237 7.76737 18.9528C7.79165 18.9609 7.81594 18.9528 7.82404 18.9366C8.14785 18.4913 8.43929 18.0218 8.69025 17.528C8.70644 17.4956 8.69025 17.4632 8.65787 17.4551C8.19643 17.277 7.75927 17.0665 7.33021 16.8237C7.29783 16.8075 7.29783 16.7589 7.32212 16.7346C7.41117 16.6699 7.50022 16.597 7.58927 16.5322C7.60546 16.516 7.62975 16.516 7.64594 16.5241C10.4308 17.7951 13.4342 17.7951 16.1866 16.5241C16.2028 16.516 16.2271 16.516 16.2433 16.5322C16.3324 16.6051 16.4214 16.6699 16.5105 16.7427C16.5428 16.767 16.5428 16.8156 16.5024 16.8318C16.0814 17.0827 15.6362 17.2851 15.1747 17.4632C15.1423 17.4713 15.1342 17.5118 15.1423 17.5361C15.4014 18.0299 15.6928 18.4994 16.0085 18.9447C16.0328 18.9528 16.0571 18.9609 16.0814 18.9528C17.4738 18.5237 18.8743 17.8761 20.3315 16.8075C20.3477 16.7994 20.3558 16.7832 20.3558 16.767C20.712 13.0998 19.7648 9.91824 17.8462 7.09292C17.8381 7.08483 17.83 7.07673 17.8138 7.07673ZM9.11121 14.8322C8.27738 14.8322 7.58117 14.0631 7.58117 13.1159C7.58117 12.1688 8.26119 11.3997 9.11121 11.3997C9.96933 11.3997 10.6494 12.1769 10.6413 13.1159C10.6413 14.0631 9.96124 14.8322 9.11121 14.8322ZM14.7537 14.8322C13.9199 14.8322 13.2237 14.0631 13.2237 13.1159C13.2237 12.1688 13.9037 11.3997 14.7537 11.3997C15.6119 11.3997 16.2919 12.1769 16.2838 13.1159C16.2838 14.0631 15.6119 14.8322 14.7537 14.8322Z" fill="#5865F2"/>
</svg>
