<svg width="48" height="48" viewBox="0 0 48 48" fill="none" xmlns="http://www.w3.org/2000/svg">
<path d="M24.0039 4.0802C13.0039 4.0802 4.00391 13.0602 4.00391 24.1202C4.00391 34.1202 11.3239 42.4202 20.8839 43.9202V29.9202H15.8039V24.1202H20.8839V19.7002C20.8839 14.6802 23.8639 11.9202 28.4439 11.9202C30.6239 11.9202 32.9039 12.3002 32.9039 12.3002V17.2402H30.3839C27.9039 17.2402 27.1239 18.7802 27.1239 20.3602V24.1202H32.6839L31.7839 29.9202H27.1239V43.9202C31.8368 43.1759 36.1283 40.7712 39.2238 37.1403C42.3192 33.5094 44.0146 28.8915 44.0039 24.1202C44.0039 13.0602 35.0039 4.0802 24.0039 4.0802Z" fill="#1877F2"/>
</svg>
