<svg width="24" height="24" viewBox="0 0 24 24" fill="none" xmlns="http://www.w3.org/2000/svg">
<path d="M21.8071 10.0415H21.0016V10H12.0016V14H17.6531C16.8286 16.3285 14.6131 18 12.0016 18C8.68809 18 6.00159 15.3135 6.00159 12C6.00159 8.6865 8.68809 6 12.0016 6C13.5311 6 14.9226 6.577 15.9821 7.5195L18.8106 4.691C17.0246 3.0265 14.6356 2 12.0016 2C6.47909 2 2.00159 6.4775 2.00159 12C2.00159 17.5225 6.47909 22 12.0016 22C17.5241 22 22.0016 17.5225 22.0016 12C22.0016 11.3295 21.9326 10.675 21.8071 10.0415Z" fill="#FFC107"/>
<path d="M3.15466 7.3455L6.44016 9.755C7.32916 7.554 9.48216 6 12.0017 6C13.5312 6 14.9227 6.577 15.9822 7.5195L18.8107 4.691C17.0247 3.0265 14.6357 2 12.0017 2C8.16066 2 4.82966 4.1685 3.15466 7.3455Z" fill="#FF3D00"/>
<path d="M12.0009 22.0001C14.5839 22.0001 16.9309 21.0116 18.7054 19.4041L15.6104 16.7851C14.5727 17.5743 13.3046 18.0011 12.0009 18.0001C9.39989 18.0001 7.19139 16.3416 6.35939 14.0271L3.09839 16.5396C4.75339 19.7781 8.11439 22.0001 12.0009 22.0001Z" fill="#4CAF50"/>
<path d="M21.8055 10.0415H21V10H12V14H17.6515C17.2571 15.1082 16.5467 16.0766 15.608 16.7855L15.6095 16.7845L18.7045 19.4035C18.4855 19.6025 22 17 22 12C22 11.3295 21.931 10.675 21.8055 10.0415Z" fill="#1976D2"/>
</svg>
