<svg xmlns="http://www.w3.org/2000/svg" width="38" height="40" viewBox="0 0 38 40" fill="none">
<path fill-rule="evenodd" clip-rule="evenodd" d="M28.4892 3.75009L32.6545 6.14218C35.9306 8.02357 37.9659 11.4841 37.981 15.2481L38 20L37.981 24.7519C37.9659 28.5159 35.9306 31.9764 32.6545 33.8578L28.4892 36.2499L24.3049 38.6095C21.0171 40.4635 16.983 40.4635 13.6952 38.6095L9.5108 36.2499L5.34548 33.8578C2.06942 31.9764 0.034119 28.5159 0.0190387 24.7519L0 20L0.0190387 15.2481C0.034119 11.4841 2.06942 8.02358 5.34548 6.14218L9.5108 3.75009L13.6952 1.39051C16.983 -0.463503 21.0171 -0.463502 24.3049 1.39051L28.4892 3.75009ZM10.5 5.48834L14.6775 3.13261C17.3556 1.62246 20.6445 1.62246 23.3225 3.13261L27.5 5.48834L31.6585 7.87652C34.3244 9.40747 35.9688 12.215 35.981 15.2561L36 20L35.981 24.7439C35.9688 27.785 34.3244 30.5925 31.6585 32.1235L27.5 34.5117L23.3225 36.8674C20.6445 38.3775 17.3555 38.3775 14.6775 36.8674L10.5 34.5117L6.34149 32.1235C3.67567 30.5925 2.03121 27.785 2.01902 24.7439L2.00002 20L2.01902 15.2561C2.03121 12.215 3.67567 9.40747 6.3415 7.87653L10.5 5.48834Z" fill="url(#paint0_linear_224_19552)"/>
<defs>
<linearGradient id="paint0_linear_224_19552" x1="19" y1="2" x2="19" y2="38" gradientUnits="userSpaceOnUse">
<stop stop-color="white" stop-opacity="0.4"/>
<stop offset="1" stop-color="#0D99FF"/>
</linearGradient>
</defs>
</svg>