<svg xmlns="http://www.w3.org/2000/svg" width="38" height="40" viewBox="0 0 38 40" fill="none">
<path fill-rule="evenodd" clip-rule="evenodd" d="M 28.4892 3.7501 L 32.6545 6.1422 C 35.9306 8.0236 37.9659 11.4841 37.981 15.2481 L 38 20 L 37.981 24.7519 C 37.9659 28.5159 35.9306 31.9764 32.6545 33.8578 L 28.4892 36.2499 L 24.3049 38.6095 C 21.0171 40.4635 16.983 40.4635 13.6952 38.6095 L 9.5108 36.2499 L 5.3455 33.8578 C 2.0694 31.9764 0.0341 28.5159 0.019 24.7519 L 0 20 L 0.019 15.2481 C 0.0341 11.4841 2.0694 8.0236 5.3455 6.1422 L 9.5108 3.7501 L 13.6952 1.3905 C 16.983 -0.4635 21.0171 -0.4635 24.3049 1.3905 L 28.4892 3.7501 Z M 12.875 9.1161 L 16.0082 7.3495 C 18.0167 6.2169 20.4834 6.2169 22.492 7.3495 L 25.625 9.1161 L 28.7439 10.9075 C 30.7433 12.0557 31.9766 14.1613 31.9858 16.442 L 32 20 L 31.9858 23.558 C 31.9766 25.8387 30.7433 27.9444 28.7439 29.0925 L 25.625 30.8837 L 22.492 32.6506 C 20.4834 33.7831 18.0166 33.7831 16.0082 32.6506 L 12.875 30.8837 L 9.7561 29.0925 C 7.7567 27.9444 6.5234 25.8387 6.5142 23.558 L 6.5 20 L 6.5142 16.442 C 6.5234 14.1613 7.7567 12.0557 9.7561 10.9075 L 12.875 9.1161 Z" fill="url(#paint0_linear_224_19312)"/>
<defs>
<linearGradient id="paint0_linear_224_19312" x1="19" y1="2" x2="19" y2="38" gradientUnits="userSpaceOnUse">
<stop stop-color="white" stop-opacity="0.4"/>
<stop offset="0.63" stop-color="#2D9017"/>
</linearGradient>
</defs>
</svg>