<svg width="32" height="32" viewBox="0 0 32 32" fill="none" xmlns="http://www.w3.org/2000/svg">
<g id="Icon">
<g id="Icon_2">
<path id="Vector" d="M30 31.8974C30 31.8974 25.2868 30.1065 21.4735 28.6718H5.43714C3.53848 28.6718 2 27.0954 2 25.1518V4.51896C2 2.5764 3.53848 1 5.43714 1H26.5609C28.4595 1 29.999 2.5764 29.999 4.51896V22.2893L30 22.2883V31.8974ZM25.8615 20.3278C25.5322 19.9347 24.9525 19.8898 24.5694 20.2261C24.5395 20.252 21.5543 22.8161 15.998 22.8161C10.5125 22.8161 7.48147 20.27 7.4266 20.2241C7.04247 19.8888 6.46579 19.9357 6.13655 20.3278C5.8063 20.7219 5.8522 21.3136 6.23632 21.6518C6.37899 21.7755 9.77423 24.6928 15.998 24.6928C22.2248 24.6928 25.621 21.7755 25.7617 21.6518C26.1458 21.3136 26.1917 20.7219 25.8615 20.3278Z" fill="white"/>
</g>
</g>
</svg>
