<svg width="16" height="16" viewBox="0 0 16 16" fill="none" xmlns="http://www.w3.org/2000/svg">
<g clip-path="url(#clip0_9660_11304)">
<path d="M8.72764 0C8.62844 0 8.52604 0.00512 8.42108 0.01344C5.7158 0.22656 6.43324 3.08992 6.39228 4.04416C6.343 4.74368 6.20028 5.29472 5.71964 5.9776C5.15324 6.65024 4.35836 7.7376 3.9814 8.87104C3.80348 9.40352 3.719 9.9488 3.79772 10.464C3.77276 10.4858 3.74908 10.5075 3.72668 10.5504C3.56028 10.7219 3.43932 10.935 3.303 11.0874C3.17564 11.2147 2.9926 11.2582 2.79292 11.3434C2.5926 11.4304 2.3718 11.5155 2.23996 11.7792C2.18236 11.8995 2.15292 12.0307 2.15548 12.1638C2.15548 12.2912 2.17276 12.4205 2.19068 12.5069C2.2278 12.7622 2.26492 12.9734 2.21564 13.1277C2.05692 13.5629 2.03708 13.8611 2.14844 14.0781C2.2598 14.2918 2.49084 14.3782 2.7494 14.4627C3.26844 14.5907 3.9718 14.5491 4.5254 14.8461C5.11804 15.145 5.71964 15.2755 6.19964 15.1469C6.53628 15.0733 6.82044 14.8506 6.97276 14.5421C7.34844 14.5402 7.75996 14.3699 8.41916 14.3283C8.86652 14.2912 9.42652 14.4992 10.0691 14.4557C10.0851 14.5421 10.1094 14.583 10.142 14.6694L10.144 14.6714C10.3942 15.1693 10.8563 15.3958 11.3497 15.3568C11.8432 15.3184 12.3686 15.0138 12.7942 14.521C13.198 14.0314 13.8713 13.8272 14.3161 13.559C14.5388 13.4317 14.7187 13.2589 14.7315 13.0131C14.7462 12.7571 14.6041 12.4934 14.2745 12.1318V12.0698L14.2726 12.0678C14.1638 11.9398 14.1126 11.7254 14.0563 11.4752C14.0019 11.2186 13.9398 10.9722 13.7414 10.8058H13.7395C13.7017 10.7712 13.6608 10.7629 13.6192 10.7194C13.5833 10.695 13.5417 10.6797 13.4976 10.6784C13.7734 9.86048 13.6665 9.0464 13.3868 8.31424C13.0457 7.41184 12.4492 6.62592 11.9948 6.08512C11.4854 5.44192 10.9862 4.83264 10.9958 3.92896C11.0131 2.55168 11.1475 0.00384 8.72764 0ZM9.0662 2.1792H9.07452C9.21084 2.1792 9.32796 2.21888 9.44828 2.30592C9.57052 2.39232 9.65948 2.5184 9.72924 2.64704C9.79644 2.8128 9.83036 2.9408 9.83548 3.1104C9.83548 3.0976 9.83932 3.0848 9.83932 3.07264V3.1392C9.83804 3.13472 9.83676 3.1296 9.83676 3.12576L9.8342 3.1104C9.83292 3.26592 9.80028 3.41952 9.7382 3.56224C9.70812 3.64224 9.66204 3.71584 9.60188 3.77664C9.58332 3.7664 9.5654 3.75744 9.54556 3.74976C9.47836 3.72096 9.4182 3.7088 9.36316 3.66464C9.31772 3.64672 9.27036 3.632 9.223 3.6224C9.25436 3.58464 9.3158 3.53728 9.33948 3.49568C9.3734 3.41376 9.39196 3.32672 9.3958 3.2384V3.22624C9.39708 3.13984 9.38428 3.0528 9.35676 2.97024C9.32796 2.88384 9.29212 2.8416 9.23964 2.75648C9.18588 2.71424 9.13276 2.672 9.06876 2.672H9.05852C8.999 2.672 8.94588 2.6912 8.89084 2.75648C8.83004 2.81664 8.7846 2.88896 8.75964 2.97024C8.72572 3.05152 8.70588 3.1392 8.70204 3.22624V3.2384C8.70332 3.29536 8.70716 3.35296 8.71484 3.40928C8.59132 3.3664 8.43452 3.32288 8.32636 3.28C8.31996 3.2384 8.31612 3.19552 8.31484 3.15264V3.13984C8.30972 2.97088 8.34236 2.8032 8.41084 2.64768C8.46332 2.50752 8.55932 2.38784 8.68604 2.30656C8.79548 2.224 8.9286 2.1792 9.0662 2.1792ZM7.17052 2.21696H7.19356C7.28444 2.21696 7.36636 2.24768 7.44892 2.30336C7.54236 2.38592 7.61788 2.48768 7.66908 2.60096C7.72668 2.72832 7.75932 2.8576 7.767 3.02784V3.0304C7.77148 3.11616 7.77084 3.15904 7.76572 3.20064V3.25184C7.74652 3.25632 7.72988 3.26336 7.7126 3.2672C7.61532 3.3024 7.53724 3.3536 7.46108 3.3952C7.46876 3.33824 7.4694 3.28064 7.463 3.22432V3.21472C7.45532 3.1296 7.43804 3.08736 7.41052 3.0016C7.39068 2.93632 7.3542 2.87808 7.30428 2.83072C7.27292 2.80192 7.23068 2.7872 7.18716 2.78976H7.17372C7.12828 2.7936 7.09052 2.816 7.05468 2.87424C7.01372 2.92352 6.98748 2.98368 6.97788 3.04704C6.9606 3.11616 6.95548 3.1872 6.96316 3.25888V3.26784C6.97084 3.35424 6.98684 3.39648 7.015 3.4816C7.0438 3.56736 7.07708 3.6096 7.1206 3.65312C7.12764 3.65888 7.13404 3.66464 7.14236 3.66848C7.09756 3.70496 7.06748 3.71328 7.02972 3.75552C7.00604 3.77344 6.97852 3.79392 6.94588 3.79904C6.87932 3.71904 6.82044 3.63264 6.76988 3.54176C6.70844 3.40736 6.67644 3.26144 6.67068 3.11488C6.6598 2.97024 6.67772 2.8256 6.72188 2.68736C6.75708 2.56128 6.81916 2.4448 6.903 2.34496C6.98492 2.25984 7.0694 2.21696 7.17052 2.21696ZM8.04796 3.3088C8.2598 3.3088 8.51644 3.3504 8.82556 3.56416C9.01308 3.69216 9.16028 3.73632 9.49948 3.86368H9.5014C9.6646 3.95072 9.7606 4.03392 9.80732 4.11904V4.0352C9.85404 4.12928 9.85724 4.23872 9.81756 4.336C9.73884 4.53504 9.48732 4.74816 9.1366 4.87552V4.8768C8.96508 4.9632 8.81596 5.08992 8.6406 5.1744C8.46396 5.2608 8.26428 5.36128 7.99292 5.34528C7.89564 5.3504 7.79772 5.33568 7.7062 5.3024C7.6358 5.264 7.56668 5.22176 7.50012 5.17568C7.37532 5.08928 7.2678 4.9632 7.10844 4.87808V4.87488H7.10524C6.84924 4.71744 6.711 4.5472 6.6662 4.41984C6.62204 4.24832 6.663 4.11968 6.78972 4.03584C6.93308 3.94944 7.03292 3.8624 7.09884 3.8208C7.1654 3.77344 7.19036 3.75552 7.21148 3.73696H7.21276V3.73504C7.32092 3.60576 7.4918 3.43488 7.74972 3.3504C7.83868 3.32736 7.93788 3.3088 8.04796 3.3088ZM9.83932 4.68032C10.0691 5.5872 10.6054 6.90432 10.9504 7.54304C11.1334 7.8848 11.4976 8.6048 11.6556 9.4784C11.7555 9.4752 11.8662 9.48992 11.984 9.51936C12.3974 8.44992 11.6345 7.30048 11.287 6.98112C11.1456 6.85248 11.1385 6.76672 11.2083 6.76672C11.5852 7.10848 12.0819 7.7728 12.2617 8.5312C12.3443 8.8736 12.3635 9.23776 12.2752 9.6C12.318 9.61792 12.3616 9.63904 12.4064 9.64288C13.0668 9.98464 13.3107 10.2432 13.1936 10.6266V10.599C13.1545 10.5971 13.1168 10.599 13.0777 10.599H13.0681C13.1648 10.3002 12.9516 10.071 12.3865 9.81568C11.8009 9.55968 11.3331 9.60064 11.2531 10.1133C11.2486 10.1408 11.2454 10.1555 11.2422 10.1997C11.1987 10.2144 11.1532 10.2336 11.1084 10.2406C10.8332 10.4122 10.6848 10.6688 10.6009 11.0003C10.5177 11.3414 10.4921 11.7402 10.4697 12.1965V12.1984C10.4563 12.4122 10.3603 12.7347 10.2656 13.063C9.30556 13.7491 7.97436 14.0474 6.8422 13.2768C6.77116 13.1533 6.68476 13.0374 6.58492 12.9357C6.53756 12.8557 6.4774 12.784 6.40892 12.7219C6.5254 12.7219 6.62524 12.7034 6.70652 12.679C6.79932 12.6362 6.871 12.5587 6.90748 12.4653C6.9766 12.2944 6.90748 12.0192 6.68668 11.721C6.46588 11.4221 6.09084 11.0842 5.54236 10.7475C5.13916 10.4922 4.91132 10.1907 4.80636 9.85408C4.70076 9.51232 4.71484 9.15968 4.79676 8.80128C4.95356 8.11648 5.35548 7.45088 5.61212 7.03296C5.6806 6.99136 5.6358 7.11936 5.351 7.65632C5.09756 8.13696 4.62076 9.2544 5.27292 10.1229C5.29724 9.48992 5.43804 8.86528 5.687 8.28224C6.04796 7.46432 6.80252 6.03968 6.86204 4.91072C6.89276 4.93376 7.00092 4.99712 7.047 5.04C7.18652 5.12512 7.2902 5.25312 7.4246 5.3376C7.55964 5.46624 7.72988 5.552 7.98524 5.552C8.0102 5.55392 8.03324 5.55584 8.05628 5.55584C8.31932 5.55584 8.52284 5.47008 8.69372 5.38432C8.87932 5.29856 9.02716 5.17056 9.16732 5.12832H9.17052C9.4694 5.04192 9.70556 4.87104 9.83932 4.68032ZM11.2384 10.4134C11.262 10.7981 11.4579 11.2102 11.8028 11.2947C12.1792 11.3805 12.7206 11.0816 12.9491 10.8051L13.0841 10.7994C13.2857 10.7942 13.4534 10.8058 13.6262 10.9702L13.6281 10.9722C13.7612 11.0995 13.8233 11.312 13.8784 11.5328C13.9328 11.7894 13.9769 12.032 14.1401 12.215C14.4512 12.5523 14.5529 12.7949 14.5472 12.9446L14.5491 12.9408V12.9523L14.5472 12.9446C14.5376 13.1123 14.4288 13.1981 14.2284 13.3254C13.8252 13.5821 13.111 13.7811 12.656 14.3302C12.2604 14.8019 11.7785 15.0592 11.3529 15.0925C10.928 15.1264 10.5612 14.9645 10.3456 14.5178L10.3424 14.5158C10.208 14.2592 10.2656 13.8598 10.3782 13.4342C10.4908 13.0067 10.6521 12.5734 10.6745 12.2195C10.6982 11.7626 10.7232 11.3651 10.7993 11.0586C10.8761 10.761 10.9964 10.5485 11.2096 10.4288L11.2384 10.4147V10.4134ZM4.31676 10.4448H4.32316C4.35708 10.4448 4.39036 10.448 4.42364 10.4538C4.66428 10.489 4.87548 10.6669 5.07836 10.935L5.66076 12L5.66268 12.0019C5.8182 12.343 6.14524 12.6829 6.42364 13.0502C6.7014 13.433 6.91644 13.7741 6.8902 14.055V14.0589C6.85372 14.535 6.58364 14.7936 6.1702 14.887C5.7574 14.9734 5.1974 14.8883 4.6374 14.5901C4.01788 14.247 3.28188 14.2899 2.80892 14.2048C2.57276 14.1626 2.41788 14.0762 2.3462 13.9482C2.27516 13.8208 2.27388 13.5635 2.42492 13.161V13.159L2.4262 13.1571C2.50108 12.9434 2.4454 12.6752 2.40892 12.441C2.37372 12.1843 2.3558 11.9872 2.43644 11.8394C2.53884 11.6256 2.68988 11.584 2.8774 11.4982C3.0662 11.4118 3.28764 11.369 3.46364 11.1981H3.46492V11.1962C3.62876 11.0246 3.74972 10.8115 3.89244 10.6598C4.01404 10.5312 4.13564 10.4448 4.31676 10.4448ZM8.89852 4.63744C8.62012 4.76608 8.29372 4.97984 7.9462 4.97984C7.59932 4.97984 7.3254 4.80896 7.12764 4.6816C7.02844 4.59584 6.94844 4.51008 6.88828 4.4672C6.78332 4.38144 6.79612 4.25344 6.84092 4.25344C6.91068 4.26368 6.92348 4.33984 6.96828 4.38208C7.02972 4.42432 7.10588 4.50944 7.19932 4.5952C7.38556 4.7232 7.63452 4.89408 7.94556 4.89408C8.25596 4.89408 8.61948 4.7232 8.84028 4.59584C8.96508 4.50944 9.12508 4.38208 9.255 4.29696C9.35484 4.20928 9.35036 4.12544 9.43356 4.12544C9.51612 4.13568 9.45532 4.2112 9.33948 4.33856C9.22364 4.42496 9.04508 4.55232 8.89852 4.63744ZM8.20604 3.62368V3.6096C8.2022 3.59744 8.21436 3.58272 8.2246 3.5776C8.27196 3.55008 8.3398 3.56032 8.391 3.58016C8.43132 3.58016 8.4934 3.62304 8.487 3.66656C8.48316 3.69792 8.4326 3.7088 8.4006 3.7088C8.3654 3.7088 8.34172 3.68128 8.31036 3.66528C8.27708 3.65376 8.21692 3.66016 8.20604 3.62368ZM7.8534 3.62368C7.8406 3.6608 7.78108 3.65504 7.74716 3.66592C7.71708 3.68192 7.69212 3.70944 7.6582 3.70944C7.62556 3.70944 7.57436 3.69728 7.57052 3.66592C7.56476 3.62368 7.62684 3.5808 7.66652 3.5808C7.71836 3.56096 7.78428 3.55072 7.83228 3.5776C7.84444 3.58336 7.85532 3.5968 7.85148 3.6096V3.62304L7.8534 3.62368Z" fill="white"/>
</g>
<defs>
<clipPath id="clip0_9660_11304">
<rect width="13" height="16" fill="white" transform="translate(2)"/>
</clipPath>
</defs>
</svg>
