<svg width="38" height="38" viewBox="0 0 38 38" fill="none" xmlns="http://www.w3.org/2000/svg">
<path d="M14.4638 11.9233L14.5749 13.9187L12.7968 16.5214L10.0185 20.7724L9.46289 24.3294L11.4632 29.3613L16.0196 31.3567H22.9097L29.3553 27.5394L32.2447 21.5532L25.5769 15.2201L23.6876 11.6631L14.4638 11.9233Z" fill="#ECEFF1"/>
<path d="M30.2438 16.8679C28.4657 14.8726 27.021 13.658 26.2431 11.1421C25.4651 8.62613 26.4653 9.32018 25.7985 7.15128C25.4651 6.02345 24.9095 5.24265 24.3538 4.63536C23.6871 4.02807 22.9091 3.68104 22.4646 3.59429C21.4644 3.16051 19.1307 2.46646 16.2413 3.68104C13.2408 4.89563 13.5741 7.49831 14.1298 12.7904C14.1298 13.1374 14.0187 13.5712 13.7964 13.9182C13.3519 14.699 12.574 15.3931 11.9072 16.0004C11.1293 16.8679 10.3514 17.7355 9.7957 18.6898C8.46213 20.6852 7.23969 23.2011 7.57308 24.1554C8.12874 24.0687 15.13 32.3973 15.13 32.5708C15.5745 32.484 17.4637 32.484 19.1307 32.484C21.4644 32.3973 22.798 32.3105 24.6872 32.6575C24.6872 32.3973 24.5761 32.137 24.5761 31.8767C24.5761 31.3562 24.6872 30.9224 24.7984 30.3151C24.9095 29.8813 25.0206 29.4476 25.1318 28.927C24.0204 29.7078 22.0201 30.5754 20.1309 30.8356C18.4639 31.0959 15.6856 30.6621 14.3521 29.3608C14.4632 29.3608 14.6855 29.3608 14.7966 29.274C15.13 29.1873 15.4634 29.1005 15.5745 28.927C15.9079 28.4932 15.6856 28.0595 15.4634 27.7992C15.2411 27.5389 13.5741 26.5846 12.7962 26.0641C12.0183 25.5435 11.5738 25.2833 11.1293 24.9362C11.1293 24.9362 10.4625 24.4157 10.2402 24.2422C10.018 24.0687 9.90683 23.8952 9.7957 23.8084C9.57344 23.3746 9.46231 22.8541 9.57344 22.1601C9.68457 21.2057 10.1291 20.4249 10.6847 19.5574C10.907 19.2104 11.4627 18.5163 11.4627 18.5163C11.4627 18.5163 9.57344 22.1601 10.5736 23.2879C10.5736 23.2879 10.6847 22.1601 11.1293 21.0322C11.4627 20.2514 12.0183 19.1236 12.6851 18.5163C13.3519 17.909 15.0188 15.6534 15.13 14.2653C15.13 13.658 15.2411 13.0507 15.2411 12.6169C14.7966 12.2699 22.5757 11.4023 23.0203 12.3566C23.1314 12.7037 24.6872 15.8269 25.5763 17.4752C26.0208 18.256 26.5765 18.9501 26.9098 19.8176C27.2432 20.772 27.4655 22.0733 27.4655 23.3746C27.4655 23.6349 27.4655 24.0687 27.3544 24.5025C27.5766 24.5025 31.9107 20.8587 26.7987 17.8223C26.7987 17.8223 29.9104 18.9501 30.0215 21.2057C30.1326 23.0276 29.1325 24.5025 28.9102 24.7627C29.0213 24.7627 31.2439 25.5435 31.3551 25.5435C31.7996 25.5435 32.6887 25.2833 32.6887 25.2833C32.7998 25.023 33.1332 24.329 33.1332 24.0687C33.9111 22.0733 32.0219 18.8633 30.2438 16.8679Z" fill="#373737"/>
<path d="M16.1302 11.1429C16.9281 11.1429 17.5749 10.366 17.5749 9.40776C17.5749 8.44948 16.9281 7.67264 16.1302 7.67264C15.3324 7.67264 14.6855 8.44948 14.6855 9.40776C14.6855 10.366 15.3324 11.1429 16.1302 11.1429Z" fill="#ECEFF1"/>
<path d="M21.1314 11.3162C22.1748 11.3162 23.0206 10.4228 23.0206 9.3208C23.0206 8.21877 22.1748 7.32541 21.1314 7.32541C20.088 7.32541 19.2422 8.21877 19.2422 9.3208C19.2422 10.4228 20.088 11.3162 21.1314 11.3162Z" fill="#ECEFF1"/>
<path d="M16.9369 9.52538C16.8445 8.95496 16.4241 8.52663 15.9979 8.56869C15.5716 8.61075 15.301 9.10727 15.3933 9.67769C15.4857 10.2481 15.9061 10.6764 16.3323 10.6344C16.7586 10.5923 17.0292 10.0958 16.9369 9.52538Z" fill="#212121"/>
<path d="M21.0195 10.7955C21.6333 10.7955 22.1308 10.2905 22.1308 9.66764C22.1308 9.04476 21.6333 8.53981 21.0195 8.53981C20.4058 8.53981 19.9082 9.04476 19.9082 9.66764C19.9082 10.2905 20.4058 10.7955 21.0195 10.7955Z" fill="#212121"/>
<path d="M35.8019 28.7542C35.3574 28.5807 34.5795 28.3204 33.9127 27.5396C33.5793 27.1058 33.6905 25.8912 33.1348 25.3707C32.8014 25.0237 32.3569 25.1972 32.2458 25.1972C31.2456 25.3707 28.9118 26.5853 27.356 25.1972C27.1337 25.0237 26.8003 24.7634 26.2447 24.7634C25.689 24.7634 25.4668 24.9369 25.2445 25.2839C25.0223 25.631 25.0223 25.8912 25.0223 26.7588C25.0223 27.4528 25.0223 28.2336 24.9111 28.8409C24.6889 30.3158 24.3555 31.1833 24.3555 32.0509C24.3555 33.0052 24.6889 33.6125 25.1334 33.8728C25.4668 34.133 26.0224 34.3066 27.2449 34.3066C28.4673 34.3066 29.2452 33.9595 30.0231 33.3522C30.5788 32.9185 31.0233 32.7449 32.5792 31.8774C33.8016 31.2701 35.6908 30.4893 36.0242 30.229C36.2465 30.0555 36.5799 29.9688 36.5799 29.4482C36.5799 29.0144 36.1353 28.8409 35.8019 28.7542Z" fill="#595959"/>
<path d="M13.4637 29.0149C12.3524 27.6268 12.2412 27.3665 11.4633 26.499C10.7965 25.6314 9.35183 23.983 8.46278 23.983C7.79599 23.983 7.4626 24.2433 7.01808 24.5903C6.57356 24.9374 6.12903 25.7182 5.35112 26.1519C4.68433 26.5857 2.79511 26.499 2.35058 27.0195C1.90606 27.54 2.79511 28.3208 2.79511 29.6222C2.79511 30.1427 2.23945 30.4897 2.12832 30.8368C2.01719 31.2705 1.90606 31.5308 2.12832 31.8778C2.57285 32.3984 3.1285 32.5719 6.90695 33.1792C8.9073 33.5262 10.7965 34.3938 12.019 34.4805C13.2414 34.5673 15.3529 34.4805 15.3529 32.1381C15.464 30.75 14.4638 30.403 13.4637 29.0149Z" fill="#595959"/>
<path d="M15.576 13.3121C14.9092 12.9651 14.3535 12.6181 14.3535 12.0975C14.3535 11.577 14.798 11.4035 15.4648 10.9697C15.576 10.883 16.7984 10.0154 18.0208 10.0154C19.2433 10.0154 20.688 10.6227 21.2436 10.7962C22.2438 10.9697 23.244 11.1432 23.1329 11.7505C23.0217 12.6181 22.9106 12.7916 21.7993 13.2254C21.0214 13.3989 19.5767 14.3532 18.5765 14.3532C18.132 14.3532 17.4652 14.3532 17.0207 14.2664C16.6873 14.1797 16.1316 13.7459 15.576 13.3121Z" fill="#595959"/>
<path d="M15.3522 12.6174C15.5745 12.7909 15.9079 12.9644 16.2412 13.0512C16.4635 13.138 16.7969 13.2247 16.7969 13.2247C17.2414 13.2247 17.5748 13.2247 17.7971 13.2247C18.3527 13.2247 19.1306 13.0512 19.9086 12.7042C20.6865 12.4439 20.7976 12.2704 21.3533 12.0969C21.9089 11.8366 22.4646 11.5763 22.2423 11.4896C22.02 11.4028 21.7978 11.4896 21.0199 11.8366C20.3531 12.1836 19.7974 12.3571 19.1306 12.6174C18.7973 12.7042 18.3527 12.8777 18.0193 12.8777C17.6859 12.8777 17.3526 12.8777 17.0192 12.8777C16.6858 12.8777 16.4635 12.7909 16.1301 12.7042C15.9079 12.6174 15.7967 12.5307 15.6856 12.5307C15.4633 12.4439 15.0188 12.0969 14.7965 12.0101C14.7965 12.0101 14.5743 12.0101 14.6854 12.0969C15.0188 12.3571 15.1299 12.4439 15.3522 12.6174Z" fill="#0B0B0B"/>
<path d="M18.6855 10.7085C18.7967 10.882 19.0189 10.882 19.1301 10.9688C19.2412 11.0555 19.3523 11.0555 19.3523 11.0555C19.4635 10.9688 19.3523 10.7953 19.2412 10.7953C19.2412 10.6218 18.6855 10.6218 18.6855 10.7085Z" fill="#0B0B0B"/>
<path d="M16.9082 10.8824C16.9082 10.9692 17.1305 11.0559 17.1305 10.9692C17.2416 10.8824 17.3527 10.7957 17.4639 10.7957C17.6861 10.7089 17.575 10.6222 17.2416 10.6222C17.0193 10.7089 17.0193 10.7957 16.9082 10.8824Z" fill="#0B0B0B"/>
<path d="M27.6887 26.2381C27.6887 26.3249 27.6887 26.4117 27.6887 26.4984C27.9109 26.8454 28.4666 26.9322 28.9111 26.9322C29.5779 26.9322 30.2447 26.5852 30.5781 26.2381C30.5781 26.1514 30.6892 26.0646 30.8003 25.9779C31.0226 25.7176 31.1337 25.5441 31.2449 25.4573C31.2449 25.4573 31.1337 25.3706 31.1337 25.2838C31.0226 25.1103 30.6892 24.9368 30.2447 24.85C29.9113 24.7633 29.3556 24.6765 29.1334 24.6765C28.1332 24.5898 27.5775 24.85 27.2441 25.1103C27.2441 25.1103 27.3553 25.1103 27.3553 25.1971C27.5775 25.3706 27.6887 25.5441 27.6887 25.8044C27.7998 25.9779 27.6887 26.0646 27.6887 26.2381Z" fill="#455A64"/>
</svg>
