<svg width="16" height="16" viewBox="0 0 16 16" fill="none" xmlns="http://www.w3.org/2000/svg">
<path d="M14.1947 12.4689C13.9527 13.0279 13.6663 13.5424 13.3344 14.0155C12.8821 14.6604 12.5117 15.1068 12.2263 15.3547C11.7839 15.7616 11.3098 15.97 10.8022 15.9818C10.4377 15.9818 9.99825 15.8781 9.48666 15.6678C8.97339 15.4584 8.5017 15.3547 8.0704 15.3547C7.61807 15.3547 7.13295 15.4584 6.61405 15.6678C6.09436 15.8781 5.67571 15.9878 5.35562 15.9986C4.86882 16.0194 4.3836 15.8051 3.89927 15.3547C3.59014 15.0851 3.20349 14.6229 2.74029 13.9681C2.24332 13.2688 1.83474 12.458 1.51465 11.5336C1.17185 10.5351 1 9.5682 1 8.63214C1 7.55987 1.2317 6.63506 1.69578 5.86007C2.06051 5.23757 2.54573 4.74652 3.15302 4.38604C3.76031 4.02556 4.41649 3.84186 5.12313 3.83011C5.50979 3.83011 6.01684 3.94971 6.64694 4.18476C7.27527 4.42061 7.67871 4.54021 7.85559 4.54021C7.98784 4.54021 8.43602 4.40036 9.1958 4.12156C9.9143 3.863 10.5207 3.75594 11.0175 3.79811C12.3636 3.90675 13.3749 4.4374 14.0475 5.39342C12.8436 6.12288 12.2481 7.14458 12.2599 8.45525C12.2708 9.47616 12.6411 10.3257 13.369 11.0003C13.6989 11.3133 14.0673 11.5553 14.4771 11.7272C14.3882 11.9849 14.2944 12.2318 14.1947 12.4689ZM11.1073 0.320091C11.1073 1.12027 10.815 1.8674 10.2323 2.55894C9.52912 3.38104 8.67858 3.85608 7.75624 3.78112C7.74449 3.68512 7.73767 3.58409 7.73767 3.47792C7.73767 2.70975 8.07208 1.88765 8.66594 1.21547C8.96242 0.875136 9.3395 0.592152 9.79677 0.36641C10.2531 0.144037 10.6846 0.0210594 11.0906 0C11.1024 0.106972 11.1073 0.213961 11.1073 0.320091Z" fill="white"/>
</svg>
