<svg width="24" height="24" viewBox="0 0 24 24" fill="none" xmlns="http://www.w3.org/2000/svg">
<path d="M1 4.4V19.6C1 20.1039 1.20155 20.5872 1.56032 20.9435C1.91908 21.2998 2.40567 21.5 2.91304 21.5H22.0435C22.2972 21.5 22.5405 21.3999 22.7198 21.2218C22.8992 21.0436 23 20.802 23 20.55V7.25C23 6.99804 22.8992 6.75641 22.7198 6.57825C22.5405 6.40009 22.2972 6.3 22.0435 6.3H2.91304C2.40567 6.3 1.91908 6.09982 1.56032 5.7435C1.20155 5.38718 1 4.90391 1 4.4ZM1 4.4C1 3.89609 1.20155 3.41282 1.56032 3.0565C1.91908 2.70018 2.40567 2.5 2.91304 2.5H19.1739" stroke="#AFAFAF" stroke-linecap="round" stroke-linejoin="round"/>
<path d="M17.5 15.5C18.3284 15.5 19 14.8284 19 14C19 13.1716 18.3284 12.5 17.5 12.5C16.6716 12.5 16 13.1716 16 14C16 14.8284 16.6716 15.5 17.5 15.5Z" fill="#AFAFAF"/>
</svg>
