<svg width="32" height="32" viewBox="0 0 32 32" fill="none" xmlns="http://www.w3.org/2000/svg">
<g clip-path="url(#clip0_3128_45033)">
<circle cx="16" cy="16" r="16" fill="url(#paint0_radial_3128_45033)"/>
<circle cx="16" cy="16" r="15.5" stroke="white" stroke-opacity="0.2"/>
<path d="M18.1488 15.1825L19.6371 12.7456L23.6488 18.7748L23.6507 19.9319L23.6377 11.9698C23.6281 11.7751 23.521 11.5971 23.3502 11.4921L16.1276 7.48329C15.9587 7.40313 15.7444 7.40406 15.5757 7.48582C15.553 7.49678 15.5315 7.50878 15.5111 7.52188L15.4859 7.53714L8.47532 11.4572L8.44815 11.4691C8.41317 11.4846 8.37777 11.5044 8.34462 11.5273C8.21167 11.6193 8.12342 11.7553 8.09487 11.9079C8.09057 11.931 8.0874 11.9545 8.08594 11.9783L8.09696 18.4666L11.8336 12.8781C12.3041 12.137 13.3291 11.8983 14.2807 11.9113L15.3974 11.9398L8.81716 22.1225L9.59284 22.5533L16.2519 11.9501L19.1952 11.9398L12.5533 22.8106L15.3212 24.3468L15.6519 24.5303C15.7918 24.5851 15.9567 24.5879 16.0978 24.5387L23.4218 20.4432L22.0216 21.2262L18.1488 15.1825ZM18.7166 23.0743L15.9211 18.8406L17.6276 16.0464L21.299 21.6302L18.7166 23.0743Z" fill="#2D374B"/>
<path d="M15.9141 18.8411L18.7095 23.0748L21.292 21.6307L17.6205 16.0469L15.9141 18.8411Z" fill="#28A0F0"/>
<path d="M23.6504 19.9324L23.6485 18.7753L19.6368 12.7461L18.1484 15.183L22.0212 21.2266L23.4214 20.4437C23.5587 20.336 23.6419 20.1781 23.6506 20.0077L23.6504 19.9324Z" fill="#28A0F0"/>
<path d="M6.83594 21.0233L8.81329 22.1227L15.3935 11.9401L14.2767 11.9116C13.3252 11.8987 12.3002 12.1374 11.8297 12.8784L8.09305 18.4669L6.83594 20.3307V21.0233Z" fill="white"/>
<path d="M19.1883 11.9404L16.245 11.9507L9.58594 22.554L11.9135 23.847L12.5464 22.8112L19.1883 11.9404Z" fill="white"/>
<path d="M24.8872 11.9256C24.8626 11.3316 24.5293 10.7879 24.0073 10.4713L16.69 6.41097C16.1736 6.16007 15.5285 6.15975 15.0112 6.41081C14.95 6.44058 7.89535 10.3885 7.89535 10.3885C7.79771 10.4337 7.70366 10.4875 7.61521 10.5486C7.14918 10.8709 6.86512 11.3717 6.83594 11.9219V20.3308L8.09305 18.4671L8.08207 11.9787C8.08353 11.955 8.08662 11.9317 8.091 11.9086C8.11943 11.756 8.20776 11.6198 8.34075 11.5277C8.37394 11.5048 15.5491 7.49723 15.5719 7.48623C15.7406 7.4045 15.9549 7.40354 16.1238 7.48369L23.3463 11.4924C23.5172 11.5974 23.6243 11.7755 23.6338 11.9701V20.0075C23.6251 20.1779 23.5553 20.3359 23.4179 20.4435L22.0177 21.2265L21.2952 21.6305L18.7128 23.0746L16.0939 24.5391C15.9528 24.5882 15.7879 24.5855 15.648 24.5306L12.5495 22.811L11.9165 23.8468L14.7011 25.3938C14.7931 25.4443 14.8752 25.4891 14.9425 25.5256C15.0467 25.582 15.1178 25.6197 15.1429 25.6315C15.3408 25.7242 15.6256 25.7782 15.8822 25.7782C16.1174 25.7782 16.3468 25.7365 16.5639 25.6545L24.1706 21.4038C24.6072 21.0773 24.8641 20.5851 24.8872 20.0518V11.9256Z" fill="#96BEDC"/>
</g>
<defs>
<radialGradient id="paint0_radial_3128_45033" cx="0" cy="0" r="1" gradientUnits="userSpaceOnUse" gradientTransform="translate(16 16) rotate(90) scale(16)">
<stop stop-color="#464352"/>
<stop offset="1" stop-color="#212936"/>
</radialGradient>
<clipPath id="clip0_3128_45033">
<rect width="32" height="32" rx="16" fill="white"/>
</clipPath>
</defs>
</svg>
