<svg width="32" height="32" viewBox="0 0 32 32" fill="none" xmlns="http://www.w3.org/2000/svg">
<g clip-path="url(#clip0_3128_44973)">
<circle cx="16" cy="16" r="16" fill="#F5B300"/>
<path d="M11.3849 8.9076C11.8745 9.04115 12.3642 9.13017 12.8538 9.26372C13.3435 9.39726 13.8331 9.48629 14.3228 9.61983C14.4563 9.66434 14.5008 9.61983 14.5454 9.48629C14.7234 8.72955 14.9015 8.01732 15.0795 7.26059C15.124 7.12704 15.1686 7.08253 15.3021 7.12704C15.7472 7.26059 16.1479 7.34961 16.593 7.43864C16.7265 7.48316 16.7265 7.52767 16.682 7.6167C16.504 8.32892 16.3259 9.08566 16.1479 9.79788C16.1479 9.8424 16.1479 9.88691 16.1034 9.97594C16.4595 10.065 16.8601 10.154 17.2162 10.243C17.2607 10.243 17.3052 10.154 17.3497 10.1095C17.4833 9.5308 17.6168 8.99663 17.7949 8.41795C17.8394 8.23989 17.8839 8.06184 17.9284 7.88378C17.9284 7.79475 17.9729 7.75024 18.062 7.79475C18.5071 7.9283 18.9522 8.01732 19.4419 8.15087C19.4864 8.15087 19.4864 8.19538 19.5309 8.19538C19.3974 8.77406 19.2638 9.30823 19.1303 9.8424C19.0858 10.065 19.0413 10.2875 18.9522 10.5101C18.9077 10.6436 18.9522 10.6882 19.0858 10.7327C19.5754 10.9552 20.0651 11.1778 20.5547 11.4004C20.9999 11.6675 21.4005 12.0236 21.7121 12.4687C22.1127 13.1364 22.1573 13.8487 21.9792 14.5609C21.8457 15.0505 21.6676 15.4957 21.3115 15.8518C21.0444 16.1189 20.6883 16.2969 20.3322 16.4305C20.2877 16.4305 20.2432 16.475 20.1541 16.475C20.3322 16.6085 20.5102 16.6976 20.6883 16.8311C21.2225 17.2317 21.5786 17.7214 21.7566 18.3446C21.8457 18.8342 21.8011 19.3684 21.6676 19.858C21.4895 20.4812 21.267 21.0154 20.8663 21.5051C20.3767 22.0837 19.7535 22.3953 19.0413 22.4844C18.1065 22.6179 17.2162 22.5289 16.3259 22.3953C16.1924 22.3508 16.1034 22.3953 16.0588 22.5289C15.8808 23.2411 15.7027 23.9978 15.5247 24.7101C15.4802 24.8881 15.4802 24.9326 15.2576 24.8436C14.857 24.7546 14.4118 24.621 14.0112 24.532C13.8777 24.4875 13.8777 24.443 13.9222 24.354C14.1002 23.5972 14.2783 22.8405 14.5008 22.1283C14.5008 22.0392 14.5454 21.9947 14.4563 21.9502C14.1002 21.8612 13.7441 21.7721 13.3435 21.6831C13.2545 22.0837 13.1209 22.4844 13.0319 22.885C12.9429 23.2856 12.8093 23.6862 12.7203 24.0869C12.6758 24.1759 12.6758 24.2204 12.5422 24.1759C12.0971 24.0424 11.652 23.9533 11.2068 23.8643C11.0733 23.8198 11.0733 23.7753 11.1178 23.6862C11.2958 22.9295 11.4739 22.1728 11.6965 21.4605C11.6965 21.416 11.741 21.3715 11.741 21.2825C10.7172 21.0154 9.69334 20.7483 8.625 20.4812C8.71403 20.3032 8.75854 20.1696 8.84757 19.9916C9.02563 19.591 9.20368 19.1903 9.33722 18.8342C9.38174 18.7007 9.42625 18.7007 9.55979 18.7007C9.87139 18.7897 10.2275 18.8787 10.5391 18.9233C10.8952 19.0123 11.1623 18.8342 11.2068 18.5226C11.7855 16.2524 12.3642 13.9822 12.8983 11.6675C12.9874 11.3114 12.7648 10.9107 12.3642 10.7772C11.9635 10.6436 11.5629 10.5546 11.2068 10.4656C11.1178 10.4656 11.0733 10.4211 11.1178 10.3321C11.2513 9.8424 11.3849 9.30823 11.5184 8.81858C11.3404 8.95212 11.3404 8.95212 11.3849 8.9076ZM13.6551 19.9026C13.6996 19.9026 13.7441 19.9471 13.7441 19.9471C14.4563 20.1251 15.2131 20.3477 15.9698 20.3922C16.504 20.4367 16.9936 20.4367 17.4833 20.2587C18.329 19.9916 18.6852 18.8787 18.1955 18.1665C17.9729 17.8104 17.6168 17.5878 17.2607 17.3653C16.4595 16.9201 15.5247 16.7421 14.6344 16.564C14.5008 16.5195 14.5008 16.564 14.4563 16.6976C14.3673 17.1427 14.2338 17.5433 14.1447 17.9885C13.9667 18.6117 13.8331 19.2348 13.6551 19.9026ZM17.3943 15.3621C17.4833 15.3621 17.7059 15.3176 17.8839 15.2731C18.7297 15.095 19.1748 14.1157 18.7297 13.359C18.5071 12.9584 18.1065 12.6913 17.7059 12.5132C17.0827 12.2462 16.4595 12.1126 15.7918 11.9346C15.6582 11.89 15.6137 11.9346 15.5692 12.0681C15.3466 13.0029 15.124 13.8932 14.857 14.828C14.8124 14.917 14.857 14.9615 14.946 15.006C15.124 15.0505 15.2576 15.095 15.4356 15.1396C16.1034 15.2286 16.682 15.3621 17.3943 15.3621Z" fill="white"/>
</g>
<defs>
<clipPath id="clip0_3128_44973">
<rect width="32" height="32" rx="16" fill="white"/>
</clipPath>
</defs>
</svg>
