<svg width="32" height="32" viewBox="0 0 32 32" fill="none" xmlns="http://www.w3.org/2000/svg">
<g clip-path="url(#clip0_3128_45053)">
<path d="M16 32C24.8366 32 32 24.8366 32 16C32 7.16344 24.8366 0 16 0C7.16344 0 0 7.16344 0 16C0 24.8366 7.16344 32 16 32Z" fill="#FF0420"/>
<path d="M11.3361 20.2528C10.3834 20.2528 9.60287 20.0286 8.99442 19.5803C8.39397 19.1239 8.09375 18.4755 8.09375 17.6349C8.09375 17.4587 8.11378 17.2425 8.15378 16.9863C8.25791 16.41 8.40601 15.7174 8.59813 14.9088C9.14252 12.7072 10.5476 11.6064 12.8132 11.6064C13.4297 11.6064 13.9821 11.7105 14.4705 11.9186C14.9588 12.1188 15.3431 12.423 15.6233 12.8313C15.9035 13.2316 16.0436 13.712 16.0436 14.2724C16.0436 14.4405 16.0236 14.6527 15.9835 14.9088C15.8635 15.6214 15.7194 16.3139 15.5512 16.9863C15.271 18.0832 14.7867 18.9038 14.0982 19.4482C13.4097 19.9846 12.489 20.2528 11.3361 20.2528ZM11.5042 18.5235C11.9526 18.5235 12.3329 18.3914 12.6451 18.1272C12.9654 17.863 13.1935 17.4587 13.3296 16.9143C13.5137 16.1618 13.6539 15.5053 13.7499 14.9449C13.7819 14.7767 13.7979 14.6047 13.7979 14.4285C13.7979 13.6999 13.4177 13.3357 12.6571 13.3357C12.2088 13.3357 11.8245 13.4678 11.5042 13.7319C11.1921 13.9962 10.9679 14.4005 10.8318 14.9449C10.6877 15.4813 10.5435 16.1378 10.3995 16.9143C10.3674 17.0744 10.3514 17.2425 10.3514 17.4187C10.3514 18.1552 10.7357 18.5235 11.5042 18.5235Z" fill="white"/>
<path d="M16.5908 20.1328C16.5027 20.1328 16.4346 20.1047 16.3866 20.0487C16.3466 19.9846 16.3346 19.9126 16.3506 19.8325L18.0078 12.0268C18.0238 11.9387 18.0679 11.8667 18.1399 11.8106C18.212 11.7546 18.288 11.7266 18.3681 11.7266H21.5625C22.4511 11.7266 23.1636 11.9107 23.7 12.2789C24.2444 12.6473 24.5166 13.1796 24.5166 13.8761C24.5166 14.0763 24.4926 14.2845 24.4446 14.5006C24.2444 15.4213 23.8401 16.1018 23.2317 16.5421C22.6313 16.9824 21.8066 17.2026 20.7578 17.2026H19.1367L18.5843 19.8325C18.5682 19.9206 18.5242 19.9926 18.4522 20.0487C18.3801 20.1047 18.304 20.1328 18.224 20.1328H16.5908ZM20.8419 15.5454C21.1781 15.5454 21.4704 15.4533 21.7185 15.2692C21.9747 15.085 22.1429 14.8208 22.2229 14.4766C22.2469 14.3405 22.259 14.2204 22.259 14.1163C22.259 13.8841 22.1909 13.708 22.0548 13.5879C21.9187 13.4598 21.6865 13.3958 21.3583 13.3958H19.9172L19.4609 15.5454H20.8419Z" fill="white"/>
</g>
<defs>
<clipPath id="clip0_3128_45053">
<rect width="32" height="32" rx="16" fill="white"/>
</clipPath>
</defs>
</svg>
