<svg width="40" height="41" viewBox="0 0 40 41" fill="none" xmlns="http://www.w3.org/2000/svg">
<g clip-path="url(#clip0_5381_58590)">
<rect width="40" height="40" transform="translate(0 0.5)" fill="#EF4444"/>
<path d="M27.2904 27.0625V25.6042C27.2904 24.2451 26.3608 23.1032 25.1029 22.7794M22.5508 14.1495C23.6197 14.5822 24.3737 15.6301 24.3737 16.8542C24.3737 18.0782 23.6197 19.1261 22.5508 19.5588M23.6445 27.0625C23.6445 25.7035 23.6445 25.024 23.4225 24.488C23.1265 23.7733 22.5587 23.2055 21.844 22.9095C21.308 22.6875 20.6285 22.6875 19.2695 22.6875H17.082C15.723 22.6875 15.0435 22.6875 14.5075 22.9095C13.7929 23.2055 13.2251 23.7733 12.929 24.488C12.707 25.024 12.707 25.7035 12.707 27.0625M21.0924 16.8542C21.0924 18.465 19.7866 19.7708 18.1758 19.7708C16.565 19.7708 15.2591 18.465 15.2591 16.8542C15.2591 15.2433 16.565 13.9375 18.1758 13.9375C19.7866 13.9375 21.0924 15.2433 21.0924 16.8542Z" stroke="white" stroke-linecap="round" stroke-linejoin="round"/>
</g>
<defs>
<clipPath id="clip0_5381_58590">
<rect y="0.5" width="40" height="40" rx="20" fill="white"/>
</clipPath>
</defs>
</svg>
