<svg width="36" height="36" viewBox="0 0 36 36" fill="none" xmlns="http://www.w3.org/2000/svg">
<path d="M29.25 15.75H6.75M16.875 20.25H11.25M6.75 13.725L6.75 22.275C6.75 23.5351 6.75 24.1652 6.99524 24.6465C7.21095 25.0698 7.55516 25.414 7.97852 25.6298C8.45982 25.875 9.08988 25.875 10.35 25.875L25.65 25.875C26.9101 25.875 27.5402 25.875 28.0215 25.6298C28.4448 25.414 28.7891 25.0698 29.0048 24.6465C29.25 24.1652 29.25 23.5351 29.25 22.275V13.725C29.25 12.4649 29.25 11.8348 29.0048 11.3535C28.7891 10.9302 28.4448 10.586 28.0215 10.3702C27.5402 10.125 26.9101 10.125 25.65 10.125L10.35 10.125C9.08988 10.125 8.45982 10.125 7.97852 10.3702C7.55516 10.586 7.21095 10.9302 6.99524 11.3535C6.75 11.8348 6.75 12.4649 6.75 13.725Z" stroke="white" stroke-linecap="round" stroke-linejoin="round"/>
</svg>
