<svg width="26" height="26" viewBox="0 0 26 26" fill="none" xmlns="http://www.w3.org/2000/svg">
<path d="M23.8346 13C23.8346 18.9831 18.9844 23.8333 13.0013 23.8333C7.01822 23.8333 2.16797 18.9831 2.16797 13C2.16797 7.01691 7.01822 2.16666 13.0013 2.16666C18.9844 2.16666 23.8346 7.01691 23.8346 13Z" stroke="#52E1F2"/>
<path d="M10.2943 11.375C10.8926 11.375 11.3776 10.89 11.3776 10.2917C11.3776 9.69335 10.8926 9.20831 10.2943 9.20831C9.69597 9.20831 9.21094 9.69335 9.21094 10.2917C9.21094 10.89 9.69597 11.375 10.2943 11.375Z" stroke="#52E1F2" stroke-linecap="round" stroke-linejoin="round"/>
<path d="M15.7083 16.7917C16.3067 16.7917 16.7917 16.3067 16.7917 15.7083C16.7917 15.11 16.3067 14.625 15.7083 14.625C15.11 14.625 14.625 15.11 14.625 15.7083C14.625 16.3067 15.11 16.7917 15.7083 16.7917Z" stroke="#52E1F2" stroke-linecap="round" stroke-linejoin="round"/>
<path d="M16.25 9.75L9.75 16.25" stroke="#52E1F2" stroke-linecap="round"/>
</svg>
