<svg width="32" height="32" viewBox="0 0 32 32" fill="none" xmlns="http://www.w3.org/2000/svg">
<path d="M9.33333 16H16V22.6666M4.01333 16H4M10.68 22.6666H10.6667M16.0133 28H16M28.0133 16H28M4 22.6666H6M20.6667 16H23.3333M4 28H10.6667M16 2.66663V10.6666M23.4667 28H25.8667C26.6134 28 26.9868 28 27.272 27.8546C27.5229 27.7268 27.7268 27.5228 27.8547 27.2719C28 26.9867 28 26.6134 28 25.8666V23.4666C28 22.7199 28 22.3465 27.8547 22.0613C27.7268 21.8104 27.5229 21.6064 27.272 21.4786C26.9868 21.3333 26.6134 21.3333 25.8667 21.3333H23.4667C22.7199 21.3333 22.3466 21.3333 22.0613 21.4786C21.8105 21.6064 21.6065 21.8104 21.4787 22.0613C21.3333 22.3465 21.3333 22.7199 21.3333 23.4666V25.8666C21.3333 26.6134 21.3333 26.9867 21.4787 27.2719C21.6065 27.5228 21.8105 27.7268 22.0613 27.8546C22.3466 28 22.7199 28 23.4667 28ZM23.4667 10.6666H25.8667C26.6134 10.6666 26.9868 10.6666 27.272 10.5213C27.5229 10.3935 27.7268 10.1895 27.8547 9.93861C28 9.6534 28 9.28003 28 8.53329V6.13329C28 5.38656 28 5.01319 27.8547 4.72797C27.7268 4.47709 27.5229 4.27312 27.272 4.14528C26.9868 3.99996 26.6134 3.99996 25.8667 3.99996H23.4667C22.7199 3.99996 22.3466 3.99996 22.0613 4.14528C21.8105 4.27312 21.6065 4.47709 21.4787 4.72797C21.3333 5.01319 21.3333 5.38656 21.3333 6.13329V8.53329C21.3333 9.28003 21.3333 9.6534 21.4787 9.93861C21.6065 10.1895 21.8105 10.3935 22.0613 10.5213C22.3466 10.6666 22.7199 10.6666 23.4667 10.6666ZM6.13333 10.6666H8.53333C9.28007 10.6666 9.65344 10.6666 9.93865 10.5213C10.1895 10.3935 10.3935 10.1895 10.5213 9.93861C10.6667 9.6534 10.6667 9.28003 10.6667 8.53329V6.13329C10.6667 5.38656 10.6667 5.01319 10.5213 4.72797C10.3935 4.47709 10.1895 4.27312 9.93865 4.14528C9.65344 3.99996 9.28007 3.99996 8.53333 3.99996H6.13333C5.3866 3.99996 5.01323 3.99996 4.72801 4.14528C4.47713 4.27312 4.27316 4.47709 4.14532 4.72797C4 5.01319 4 5.38656 4 6.13329V8.53329C4 9.28003 4 9.6534 4.14532 9.93861C4.27316 10.1895 4.47713 10.3935 4.72801 10.5213C5.01323 10.6666 5.3866 10.6666 6.13333 10.6666Z" stroke="white" stroke-linecap="round" stroke-linejoin="round"/>
</svg>
