<svg width="25" height="24" viewBox="0 0 25 24" fill="none" xmlns="http://www.w3.org/2000/svg">
<g clip-path="url(#clip0_8167_37063)">
<path d="M12.9062 24C19.5337 24 24.9062 18.6274 24.9062 12C24.9062 5.37258 19.5337 0 12.9062 0C6.27883 0 0.90625 5.37258 0.90625 12C0.90625 18.6274 6.27883 24 12.9062 24Z" fill="#2FAC68"/>
<path d="M12.7031 22V2H13.9844V22H12.7031ZM16.1016 8.60156C16.0391 7.97135 15.7708 7.48177 15.2969 7.13281C14.8229 6.78385 14.1797 6.60937 13.3672 6.60937C12.8151 6.60937 12.349 6.6875 11.9687 6.84375C11.5885 6.99479 11.2969 7.20573 11.0937 7.47656C10.8958 7.7474 10.7969 8.05469 10.7969 8.39844C10.7865 8.6849 10.8464 8.9349 10.9766 9.14844C11.112 9.36198 11.2969 9.54688 11.5312 9.70312C11.7656 9.85417 12.0365 9.98698 12.3437 10.1016C12.651 10.2109 12.9792 10.3047 13.3281 10.3828L14.7656 10.7266C15.4635 10.8828 16.1042 11.0911 16.6875 11.3516C17.2708 11.612 17.776 11.9323 18.2031 12.3125C18.6302 12.6927 18.9609 13.1406 19.1953 13.6562C19.4349 14.1719 19.5573 14.763 19.5625 15.4297C19.5573 16.4089 19.3073 17.2578 18.8125 17.9766C18.3229 18.6901 17.6146 19.2448 16.6875 19.6406C15.7656 20.0312 14.6536 20.2266 13.3516 20.2266C12.0599 20.2266 10.9349 20.0286 9.97656 19.6328C9.02344 19.237 8.27865 18.651 7.74219 17.875C7.21094 17.0937 6.93229 16.1276 6.90625 14.9766H10.1797C10.2161 15.513 10.3698 15.9609 10.6406 16.3203C10.9167 16.6745 11.2839 16.9427 11.7422 17.125C12.2057 17.3021 12.7292 17.3906 13.3125 17.3906C13.8854 17.3906 14.3828 17.3073 14.8047 17.1406C15.2318 16.974 15.5625 16.7422 15.7969 16.4453C16.0312 16.1484 16.1484 15.8073 16.1484 15.4219C16.1484 15.0625 16.0417 14.7604 15.8281 14.5156C15.6198 14.2708 15.3125 14.0625 14.9062 13.8906C14.5052 13.7188 14.013 13.5625 13.4297 13.4219L11.6875 12.9844C10.3385 12.6562 9.27344 12.1432 8.49219 11.4453C7.71094 10.7474 7.32292 9.80729 7.32813 8.625C7.32292 7.65625 7.58073 6.8099 8.10156 6.08594C8.6276 5.36198 9.34896 4.79688 10.2656 4.39063C11.1823 3.98438 12.224 3.78125 13.3906 3.78125C14.5781 3.78125 15.6146 3.98438 16.5 4.39063C17.3906 4.79688 18.0833 5.36198 18.5781 6.08594C19.0729 6.8099 19.3281 7.64844 19.3437 8.60156H16.1016Z" fill="white"/>
</g>
<defs>
<clipPath id="clip0_8167_37063">
<rect x="0.90625" width="24" height="24" rx="12" fill="white"/>
</clipPath>
</defs>
</svg>
