<svg width="32" height="32" viewBox="0 0 32 32" fill="none" xmlns="http://www.w3.org/2000/svg">
<circle cx="16" cy="16" r="16" fill="#5933A9"/>
<path d="M16 18.8C16 20.733 17.567 22.3 19.5 22.3C21.433 22.3 23 20.733 23 18.8C23 16.867 21.433 15.3 19.5 15.3C17.567 15.3 16 16.867 16 18.8ZM16 18.8C16 18.0119 16.2605 17.2847 16.7 16.6997V10.4M16 18.8C16 19.3777 16.14 19.9228 16.3879 20.4031C15.7982 20.9012 14.4361 21.25 12.85 21.25C10.7237 21.25 9 20.6232 9 19.85V10.4M16.7 10.4C16.7 11.1732 14.9763 11.8 12.85 11.8C10.7237 11.8 9 11.1732 9 10.4M16.7 10.4C16.7 9.6268 14.9763 9 12.85 9C10.7237 9 9 9.6268 9 10.4M9 16.7C9 17.4732 10.7237 18.1 12.85 18.1C14.3823 18.1 15.7055 17.7745 16.3252 17.3032M16.7 13.55C16.7 14.3232 14.9763 14.95 12.85 14.95C10.7237 14.95 9 14.3232 9 13.55" stroke="white" stroke-linecap="round" stroke-linejoin="round"/>
</svg>
