<svg width="24" height="24" viewBox="0 0 24 24" fill="none" xmlns="http://www.w3.org/2000/svg">
<path d="M17.2516 2.63383L17.2516 2.63381L17.2482 2.63178L15.0459 1.33401C13.1588 0.221997 10.8412 0.221997 8.95413 1.33401L6.75184 2.63178L6.75183 2.63177L6.74839 2.63383L4.55612 3.94948C2.6779 5.07665 1.51861 7.14412 1.51002 9.38452L1.49999 11.9981L1.5 12.0019L1.51002 14.6155C1.51861 16.8559 2.6779 18.9233 4.55612 20.0505L6.74839 21.3662L6.74838 21.3662L6.75184 21.3682L8.95413 22.666C10.8412 23.778 13.1588 23.778 15.0459 22.666L17.2482 21.3682L17.2482 21.3682L17.2516 21.3662L19.4439 20.0505C21.3221 18.9233 22.4814 16.8559 22.49 14.6155L22.5 12.0019L22.5 11.9981L22.49 9.38452C22.4814 7.14412 21.3221 5.07665 19.4439 3.94948L17.2516 2.63383Z" stroke="white"/>
<path d="M12 8V16M8 12H16" stroke="white" stroke-linecap="round" stroke-linejoin="round"/>
</svg>
