<svg width="32" height="32" viewBox="0 0 32 32" fill="none" xmlns="http://www.w3.org/2000/svg">
<g filter="url(#filter0_b_1347_69410)">
<path d="M16.3333 29.6667C23.6971 29.6667 29.6667 23.6971 29.6667 16.3333C29.6667 8.96954 23.6971 3 16.3333 3C8.96954 3 3 8.96954 3 16.3333C3 23.6971 8.96954 29.6667 16.3333 29.6667Z" fill="url(#paint0_linear_1347_69410)"/>
<path d="M16.3333 30.6667C24.2494 30.6667 30.6667 24.2494 30.6667 16.3333C30.6667 8.41725 24.2494 2 16.3333 2C8.41725 2 2 8.41725 2 16.3333C2 24.2494 8.41725 30.6667 16.3333 30.6667Z" stroke="url(#paint1_linear_1347_69410)" stroke-width="2"/>
</g>
<g filter="url(#filter1_b_1347_69410)">
<path d="M21.5776 15.7856C21.5776 14.4609 20.9698 13.2078 19.9178 12.2961C18.8682 11.3864 17.458 10.885 16 10.885C14.542 10.885 13.1318 11.3864 12.0822 12.2961C11.0302 13.2078 10.4224 14.4609 10.4224 15.7856C10.4224 17.6295 9.96638 18.9535 9.41567 19.8848L9.41047 19.8936C9.07434 20.4621 8.81608 20.8988 8.64396 21.2104C8.55791 21.3661 8.48694 21.5021 8.43732 21.6135C8.41264 21.6689 8.38852 21.7287 8.37063 21.7883C8.35632 21.8359 8.32896 21.9363 8.34037 22.0531C8.34941 22.1455 8.36739 22.2863 8.44727 22.4264C8.52715 22.5664 8.63922 22.6536 8.71419 22.7084C8.79952 22.7708 8.88777 22.7994 8.93899 22.8136C8.99735 22.8298 9.05736 22.8402 9.11263 22.8476C9.22316 22.8624 9.35828 22.8706 9.51002 22.8759C9.81293 22.8864 10.2401 22.8864 10.7907 22.8864H10.8024H21.1976H21.2093C21.7599 22.8864 22.1871 22.8864 22.49 22.8759C22.6417 22.8706 22.7768 22.8624 22.8874 22.8476C22.9426 22.8402 23.0026 22.8298 23.061 22.8136C23.1122 22.7994 23.2005 22.7708 23.2858 22.7084C23.3608 22.6536 23.4728 22.5664 23.5527 22.4264C23.6326 22.2863 23.6506 22.1455 23.6596 22.0531C23.671 21.9363 23.6437 21.8359 23.6294 21.7883C23.6115 21.7287 23.5874 21.6689 23.5627 21.6135C23.5131 21.5021 23.4421 21.3661 23.356 21.2104C23.1839 20.8989 22.9257 20.4621 22.5896 19.8937L22.5843 19.8848C22.0336 18.9535 21.5776 17.6295 21.5776 15.7856Z" stroke="url(#paint2_linear_1347_69410)" stroke-linejoin="round"/>
</g>
<defs>
<filter id="filter0_b_1347_69410" x="-22.4736" y="-22.4736" width="77.6151" height="77.6138" filterUnits="userSpaceOnUse" color-interpolation-filters="sRGB">
<feFlood flood-opacity="0" result="BackgroundImageFix"/>
<feGaussianBlur in="BackgroundImageFix" stdDeviation="11.7368"/>
<feComposite in2="SourceAlpha" operator="in" result="effect1_backgroundBlur_1347_69410"/>
<feBlend mode="normal" in="SourceGraphic" in2="effect1_backgroundBlur_1347_69410" result="shape"/>
</filter>
<filter id="filter1_b_1347_69410" x="-15.9736" y="-15.9736" width="63.9472" height="64.8723" filterUnits="userSpaceOnUse" color-interpolation-filters="sRGB">
<feFlood flood-opacity="0" result="BackgroundImageFix"/>
<feGaussianBlur in="BackgroundImageFix" stdDeviation="11.7368"/>
<feComposite in2="SourceAlpha" operator="in" result="effect1_backgroundBlur_1347_69410"/>
<feBlend mode="normal" in="SourceGraphic" in2="effect1_backgroundBlur_1347_69410" result="shape"/>
</filter>
<linearGradient id="paint0_linear_1347_69410" x1="4.50549" y1="28.1612" x2="28.1612" y2="4.50549" gradientUnits="userSpaceOnUse">
<stop stop-color="white" stop-opacity="0.2"/>
<stop offset="1" stop-color="white" stop-opacity="0.3"/>
</linearGradient>
<linearGradient id="paint1_linear_1347_69410" x1="4.88237" y1="5.09728" x2="27.1732" y2="28.9313" gradientUnits="userSpaceOnUse">
<stop stop-color="white"/>
<stop offset="1" stop-color="white" stop-opacity="0"/>
</linearGradient>
<linearGradient id="paint2_linear_1347_69410" x1="9.12942" y1="9.33113" x2="23.3082" y2="23.6628" gradientUnits="userSpaceOnUse">
<stop stop-color="white"/>
<stop offset="1" stop-color="white" stop-opacity="0"/>
</linearGradient>
</defs>
</svg>
