<svg width="33" height="32" viewBox="0 0 33 32" fill="none" xmlns="http://www.w3.org/2000/svg">
<g clip-path="url(#clip0_699_61606)">
<g filter="url(#filter0_b_699_61606)">
<path d="M16.8568 29.3333C24.2206 29.3333 30.1901 23.3638 30.1901 16C30.1901 8.63616 24.2206 2.66663 16.8568 2.66663C9.49297 2.66663 3.52344 8.63616 3.52344 16C3.52344 23.3638 9.49297 29.3333 16.8568 29.3333Z" fill="url(#paint0_linear_699_61606)"/>
<path d="M16.8568 30.3333C24.7729 30.3333 31.1901 23.916 31.1901 16C31.1901 8.08388 24.7729 1.66663 16.8568 1.66663C8.94069 1.66663 2.52344 8.08388 2.52344 16C2.52344 23.916 8.94069 30.3333 16.8568 30.3333Z" stroke="url(#paint1_linear_699_61606)" stroke-width="2"/>
</g>
<g filter="url(#filter1_b_699_61606)">
<path d="M20.0475 16.3536C19.8522 16.1583 19.8522 15.8417 20.0475 15.6464L24.6464 11.0475C25.2322 10.4617 25.2322 9.51194 24.6464 8.92615L24.0738 8.35355L23.7244 8.70304L24.0738 8.35355C23.4881 7.76777 22.5383 7.76777 21.9525 8.35355L17.3536 12.9525C17.1583 13.1478 16.8417 13.1478 16.6464 12.9525L12.0475 8.35355C11.4617 7.76777 10.5119 7.76777 9.92615 8.35355L9.35355 8.92615C8.76777 9.51194 8.76777 10.4617 9.35355 11.0475L13.9525 15.6464C14.1478 15.8417 14.1478 16.1583 13.9525 16.3536L9.35355 20.9525C8.76777 21.5383 8.76777 22.4881 9.35355 23.0738L9.92615 23.6464C10.5119 24.2322 11.4617 24.2322 12.0475 23.6464L16.6464 19.0475C16.8417 18.8522 17.1583 18.8522 17.3536 19.0475L21.9525 23.6464C22.5383 24.2322 23.4881 24.2322 24.0738 23.6464L24.6464 23.0738C25.2322 22.4881 25.2322 21.5383 24.6464 20.9525L20.0475 16.3536Z" stroke="url(#paint2_linear_699_61606)"/>
</g>
</g>
<defs>
<filter id="filter0_b_699_61606" x="-21.9501" y="-22.807" width="77.6151" height="77.6138" filterUnits="userSpaceOnUse" color-interpolation-filters="sRGB">
<feFlood flood-opacity="0" result="BackgroundImageFix"/>
<feGaussianBlur in="BackgroundImageFix" stdDeviation="11.7368"/>
<feComposite in2="SourceAlpha" operator="in" result="effect1_backgroundBlur_699_61606"/>
<feBlend mode="normal" in="SourceGraphic" in2="effect1_backgroundBlur_699_61606" result="shape"/>
</filter>
<filter id="filter1_b_699_61606" x="-15.0595" y="-16.0594" width="64.119" height="64.1188" filterUnits="userSpaceOnUse" color-interpolation-filters="sRGB">
<feFlood flood-opacity="0" result="BackgroundImageFix"/>
<feGaussianBlur in="BackgroundImageFix" stdDeviation="11.7368"/>
<feComposite in2="SourceAlpha" operator="in" result="effect1_backgroundBlur_699_61606"/>
<feBlend mode="normal" in="SourceGraphic" in2="effect1_backgroundBlur_699_61606" result="shape"/>
</filter>
<linearGradient id="paint0_linear_699_61606" x1="5.02892" y1="27.8278" x2="28.6846" y2="4.17211" gradientUnits="userSpaceOnUse">
<stop stop-color="white" stop-opacity="0.2"/>
<stop offset="1" stop-color="white" stop-opacity="0.3"/>
</linearGradient>
<linearGradient id="paint1_linear_699_61606" x1="5.4058" y1="4.76391" x2="27.6966" y2="28.5979" gradientUnits="userSpaceOnUse">
<stop stop-color="#5A3937"/>
<stop offset="1" stop-color="white" stop-opacity="0"/>
</linearGradient>
<linearGradient id="paint2_linear_699_61606" x1="10.1294" y1="9.25837" x2="23.5039" y2="23.5588" gradientUnits="userSpaceOnUse">
<stop stop-color="white"/>
<stop offset="1" stop-color="white" stop-opacity="0"/>
</linearGradient>
<clipPath id="clip0_699_61606">
<rect width="32" height="32" fill="white" transform="translate(0.855469)"/>
</clipPath>
</defs>
</svg>
