<svg width="32" height="32" viewBox="0 0 32 32" fill="none" xmlns="http://www.w3.org/2000/svg">
<g filter="url(#filter0_b_1347_69644)">
<path d="M16.3333 29.6667C23.6971 29.6667 29.6667 23.6971 29.6667 16.3333C29.6667 8.96954 23.6971 3 16.3333 3C8.96954 3 3 8.96954 3 16.3333C3 23.6971 8.96954 29.6667 16.3333 29.6667Z" fill="url(#paint0_linear_1347_69644)"/>
<path d="M16.3333 30.6667C24.2494 30.6667 30.6667 24.2494 30.6667 16.3333C30.6667 8.41725 24.2494 2 16.3333 2C8.41725 2 2 8.41725 2 16.3333C2 24.2494 8.41725 30.6667 16.3333 30.6667Z" stroke="url(#paint1_linear_1347_69644)" stroke-width="2"/>
</g>
<path d="M16 17.7778V14.6667M16 11.5556H16.0089M14.1333 22.4L15.4311 24.1304C15.6241 24.3877 15.7206 24.5164 15.8389 24.5624C15.9425 24.6027 16.0575 24.6027 16.1611 24.5624C16.2794 24.5164 16.3759 24.3877 16.5689 24.1304L17.8667 22.4C18.1272 22.0526 18.2575 21.8788 18.4164 21.7462C18.6283 21.5694 18.8785 21.4443 19.1471 21.3809C19.3486 21.3333 19.5657 21.3333 20 21.3333C21.2425 21.3333 21.8638 21.3333 22.3538 21.1303C23.0072 20.8597 23.5264 20.3406 23.797 19.6872C24 19.1971 24 18.5758 24 17.3333V12.2667C24 10.7732 24 10.0265 23.7094 9.45603C23.4537 8.95426 23.0457 8.54631 22.544 8.29065C21.9735 8 21.2268 8 19.7333 8H12.2667C10.7732 8 10.0265 8 9.45603 8.29065C8.95426 8.54631 8.54631 8.95426 8.29065 9.45603C8 10.0265 8 10.7732 8 12.2667V17.3333C8 18.5758 8 19.1971 8.20299 19.6872C8.47364 20.3406 8.99277 20.8597 9.64618 21.1303C10.1362 21.3333 10.7575 21.3333 12 21.3333C12.4343 21.3333 12.6514 21.3333 12.8529 21.3809C13.1215 21.4443 13.3717 21.5694 13.5836 21.7462C13.7425 21.8788 13.8728 22.0526 14.1333 22.4Z" stroke="url(#paint2_linear_1347_69644)" stroke-linecap="round" stroke-linejoin="round"/>
<defs>
<filter id="filter0_b_1347_69644" x="-22.4736" y="-22.4736" width="77.6151" height="77.6138" filterUnits="userSpaceOnUse" color-interpolation-filters="sRGB">
<feFlood flood-opacity="0" result="BackgroundImageFix"/>
<feGaussianBlur in="BackgroundImageFix" stdDeviation="11.7368"/>
<feComposite in2="SourceAlpha" operator="in" result="effect1_backgroundBlur_1347_69644"/>
<feBlend mode="normal" in="SourceGraphic" in2="effect1_backgroundBlur_1347_69644" result="shape"/>
</filter>
<linearGradient id="paint0_linear_1347_69644" x1="4.50549" y1="28.1612" x2="28.1612" y2="4.50549" gradientUnits="userSpaceOnUse">
<stop stop-color="white" stop-opacity="0.2"/>
<stop offset="1" stop-color="white" stop-opacity="0.3"/>
</linearGradient>
<linearGradient id="paint1_linear_1347_69644" x1="4.88237" y1="5.09728" x2="27.1732" y2="28.9313" gradientUnits="userSpaceOnUse">
<stop stop-color="white"/>
<stop offset="1" stop-color="white" stop-opacity="0"/>
</linearGradient>
<linearGradient id="paint2_linear_1347_69644" x1="9" y1="8.5" x2="23.0529" y2="23.625" gradientUnits="userSpaceOnUse">
<stop stop-color="white"/>
<stop offset="1" stop-color="white" stop-opacity="0"/>
</linearGradient>
</defs>
</svg>
