<svg width="25" height="24" viewBox="0 0 25 24" fill="none" xmlns="http://www.w3.org/2000/svg">
<path d="M11.2812 2.0028C10.6062 2.01194 10.2009 2.05103 9.87327 2.21799C9.49694 2.40973 9.19098 2.71569 8.99924 3.09202C8.83228 3.4197 8.79319 3.82495 8.78405 4.5M20.2812 2.0028C20.9563 2.01194 21.3616 2.05103 21.6892 2.21799C22.0656 2.40973 22.3715 2.71569 22.5633 3.09202C22.7302 3.4197 22.7693 3.82494 22.7785 4.49999M22.7785 13.5C22.7693 14.175 22.7302 14.5803 22.5633 14.908C22.3715 15.2843 22.0656 15.5903 21.6892 15.782C21.3616 15.949 20.9563 15.9881 20.2812 15.9972M22.7812 7.99999V9.99999M14.7813 2H16.7812M5.98125 22H13.5813C14.7014 22 15.2614 22 15.6892 21.782C16.0656 21.5903 16.3715 21.2843 16.5633 20.908C16.7812 20.4802 16.7812 19.9201 16.7812 18.8V11.2C16.7812 10.0799 16.7812 9.51984 16.5633 9.09202C16.3715 8.71569 16.0656 8.40973 15.6892 8.21799C15.2614 8 14.7014 8 13.5813 8H5.98125C4.86115 8 4.30109 8 3.87327 8.21799C3.49694 8.40973 3.19098 8.71569 2.99924 9.09202C2.78125 9.51984 2.78125 10.0799 2.78125 11.2V18.8C2.78125 19.9201 2.78125 20.4802 2.99924 20.908C3.19098 21.2843 3.49694 21.5903 3.87327 21.782C4.30109 22 4.86114 22 5.98125 22Z" stroke="#AFAFAF" stroke-linecap="round" stroke-linejoin="round"/>
</svg>
