<svg width="46" height="46" viewBox="0 0 46 46" fill="none" xmlns="http://www.w3.org/2000/svg">
<g filter="url(#filter0_b_3128_49917)">
<path d="M1 23C1 17.4177 1 14.6266 1.68895 12.3554C3.24016 7.24182 7.24182 3.24016 12.3554 1.68895C14.6266 1 17.4177 1 23 1C28.5823 1 31.3734 1 33.6446 1.68895C38.7582 3.24016 42.7598 7.24182 44.311 12.3554C45 14.6266 45 17.4177 45 23C45 28.5823 45 31.3734 44.311 33.6446C42.7598 38.7582 38.7582 42.7598 33.6446 44.311C31.3734 45 28.5823 45 23 45C17.4177 45 14.6266 45 12.3554 44.311C7.24182 42.7598 3.24016 38.7582 1.68895 33.6446C1 31.3734 1 28.5823 1 23Z" fill="#808080" fill-opacity="0.1" style="mix-blend-mode:luminosity"/>
<path d="M1.21048 12.2103C0.499938 14.5527 0.499959 17.4109 0.499999 22.8758L0.5 23L0.499999 23.1242C0.499959 28.5891 0.499938 31.4473 1.21048 33.7897C2.81016 39.0631 6.93688 43.1898 12.2103 44.7895C14.5527 45.5001 17.4109 45.5 22.8757 45.5H23H23.1243C28.5891 45.5 31.4473 45.5001 33.7897 44.7895C39.0631 43.1898 43.1898 39.0631 44.7895 33.7897C45.5001 31.4473 45.5 28.5891 45.5 23.1243V23V22.8757C45.5 17.4109 45.5001 14.5527 44.7895 12.2103C43.1898 6.93688 39.0631 2.81016 33.7897 1.21048C31.4473 0.499938 28.5891 0.499959 23.1242 0.499999L23 0.5L22.8758 0.499999C17.4109 0.499959 14.5527 0.499938 12.2103 1.21048C6.93688 2.81016 2.81016 6.93688 1.21048 12.2103Z" stroke="url(#paint0_linear_3128_49917)"/>
<path d="M29.9569 16.287C29.9513 16.2762 29.9421 16.2678 29.9309 16.2632C28.6342 15.6682 27.2658 15.244 25.8599 15.001C25.8472 14.9987 25.834 15.0004 25.8222 15.0059C25.8105 15.0115 25.8008 15.0206 25.7945 15.032C25.6082 15.3702 25.439 15.7176 25.2877 16.0728C23.7723 15.8428 22.2308 15.8428 20.7154 16.0728C20.5631 15.7167 20.3912 15.3692 20.2006 15.032C20.1941 15.0209 20.1843 15.012 20.1726 15.0064C20.161 15.0009 20.1479 14.999 20.1352 15.001C18.7292 15.2435 17.3607 15.6677 16.0641 16.2632C16.053 16.2679 16.0437 16.2759 16.0373 16.2862C13.4445 20.1582 12.7342 23.9351 13.0826 27.6652C13.0836 27.6743 13.0864 27.6832 13.0909 27.6912C13.0954 27.6992 13.1014 27.7063 13.1087 27.7119C14.6185 28.8298 16.3072 29.6831 18.1027 30.2354C18.1154 30.2392 18.1289 30.239 18.1414 30.2349C18.154 30.2308 18.165 30.2229 18.1729 30.2124C18.5586 29.6876 18.9003 29.132 19.1946 28.5511C19.1986 28.5431 19.2009 28.5344 19.2013 28.5254C19.2018 28.5165 19.2003 28.5076 19.197 28.4993C19.1937 28.491 19.1887 28.4834 19.1824 28.4772C19.176 28.471 19.1683 28.4661 19.1599 28.4631C18.6211 28.2569 18.0994 28.0083 17.5998 27.7198C17.5907 27.7144 17.5831 27.7069 17.5776 27.698C17.5721 27.689 17.5689 27.6788 17.5683 27.6683C17.5676 27.6578 17.5696 27.6473 17.574 27.6377C17.5784 27.6281 17.5851 27.6198 17.5935 27.6134C17.6983 27.5349 17.8032 27.4532 17.9033 27.3707C17.9122 27.3634 17.923 27.3587 17.9344 27.3571C17.9458 27.3556 17.9574 27.3573 17.9679 27.362C21.241 28.8557 24.7846 28.8557 28.019 27.362C28.0295 27.357 28.0413 27.355 28.0529 27.3564C28.0644 27.3578 28.0754 27.3625 28.0844 27.3699C28.1846 27.4524 28.2894 27.5349 28.395 27.6134C28.4035 27.6197 28.4102 27.628 28.4147 27.6375C28.4192 27.6471 28.4212 27.6576 28.4207 27.6681C28.4201 27.6786 28.417 27.6888 28.4116 27.6978C28.4061 27.7068 28.3986 27.7144 28.3895 27.7198C27.8911 28.0108 27.3689 28.2592 26.8286 28.4623C26.8203 28.4655 26.8126 28.4704 26.8063 28.4767C26.7999 28.4831 26.795 28.4907 26.7918 28.4991C26.7886 28.5075 26.7872 28.5164 26.7877 28.5254C26.7881 28.5343 26.7905 28.5431 26.7946 28.5511C27.0939 29.1288 27.4351 29.6837 27.8155 30.2115C27.8232 30.2223 27.8342 30.2304 27.8468 30.2347C27.8594 30.239 27.873 30.2392 27.8857 30.2353C29.6845 29.6849 31.3761 28.8315 32.8878 27.7119C32.8952 27.7066 32.9013 27.6997 32.9058 27.6918C32.9103 27.6838 32.913 27.675 32.9138 27.6659C33.331 23.3536 32.2155 19.6077 29.9569 16.287ZM19.6834 25.3939C18.6979 25.3939 17.886 24.4896 17.886 23.379C17.886 22.2684 18.6822 21.364 19.6834 21.364C20.6924 21.364 21.4965 22.2762 21.4808 23.3789C21.4808 24.4896 20.6845 25.3939 19.6834 25.3939ZM26.329 25.3939C25.3436 25.3939 24.5316 24.4896 24.5316 23.379C24.5316 22.2684 25.3278 21.364 26.329 21.364C27.3381 21.364 28.1422 22.2762 28.1264 23.3789C28.1264 24.4896 27.3381 25.3939 26.329 25.3939Z" fill="white"/>
</g>
<defs>
<filter id="filter0_b_3128_49917" x="-100" y="-100" width="246" height="246" filterUnits="userSpaceOnUse" color-interpolation-filters="sRGB">
<feFlood flood-opacity="0" result="BackgroundImageFix"/>
<feGaussianBlur in="BackgroundImageFix" stdDeviation="50"/>
<feComposite in2="SourceAlpha" operator="in" result="effect1_backgroundBlur_3128_49917"/>
<feBlend mode="normal" in="SourceGraphic" in2="effect1_backgroundBlur_3128_49917" result="shape"/>
</filter>
<linearGradient id="paint0_linear_3128_49917" x1="1" y1="23" x2="44.9464" y2="24.535" gradientUnits="userSpaceOnUse">
<stop stop-color="white" stop-opacity="0.1"/>
<stop offset="0.505" stop-color="white" stop-opacity="0.4"/>
<stop offset="1" stop-color="white" stop-opacity="0.1"/>
</linearGradient>
</defs>
</svg>
