<svg width="25" height="24" viewBox="0 0 25 24" fill="none" xmlns="http://www.w3.org/2000/svg">
<path d="M3.15729 18.1159C3.20323 17.7024 3.22621 17.4957 3.28876 17.3025C3.34426 17.131 3.42268 16.9679 3.52189 16.8174C3.63371 16.6478 3.7808 16.5008 4.07498 16.2066L17.2813 3.0003C18.3858 1.89573 20.1767 1.89573 21.2813 3.0003C22.3858 4.10487 22.3858 5.89573 21.2813 7.0003L8.07498 20.2066C7.7808 20.5008 7.6337 20.6479 7.46414 20.7597C7.3137 20.8589 7.15054 20.9373 6.9791 20.9928C6.78585 21.0553 6.57911 21.0783 6.16562 21.1243L2.78125 21.5003L3.15729 18.1159Z" stroke="#AFAFAF" stroke-linecap="round" stroke-linejoin="round"/>
</svg>
