<svg width="25" height="24" viewBox="0 0 25 24" fill="none" xmlns="http://www.w3.org/2000/svg">
<path d="M20.7812 10.5V6.8C20.7812 5.11984 20.7812 4.27976 20.4543 3.63803C20.1666 3.07354 19.7077 2.6146 19.1432 2.32698C18.5015 2 17.6614 2 15.9812 2H9.58125C7.90109 2 7.06101 2 6.41928 2.32698C5.85479 2.6146 5.39585 3.07354 5.10823 3.63803C4.78125 4.27976 4.78125 5.11984 4.78125 6.8V17.2C4.78125 18.8802 4.78125 19.7202 5.10823 20.362C5.39585 20.9265 5.85479 21.3854 6.41928 21.673C7.06101 22 7.90109 22 9.58125 22H12.2812M22.7812 22L21.2812 20.5M22.2812 18C22.2812 19.933 20.7142 21.5 18.7812 21.5C16.8483 21.5 15.2812 19.933 15.2812 18C15.2812 16.067 16.8483 14.5 18.7812 14.5C20.7142 14.5 22.2812 16.067 22.2812 18Z" stroke="#AFAFAF" stroke-linecap="round" stroke-linejoin="round"/>
</svg>
