<svg width="25" height="25" viewBox="0 0 25 25" fill="none" xmlns="http://www.w3.org/2000/svg">
<g id="Component 2">
<g id="Icon">
<path d="M9.67825 19.8711L10.2627 21.1856C10.4364 21.5768 10.72 21.9093 11.0789 22.1426C11.4379 22.3759 11.8568 22.5001 12.2849 22.5C12.713 22.5001 13.132 22.3759 13.4909 22.1426C13.8499 21.9093 14.1334 21.5768 14.3071 21.1856L14.8916 19.8711C15.0996 19.4047 15.4496 19.0159 15.8916 18.76C16.3364 18.5034 16.8509 18.3941 17.3616 18.4478L18.7916 18.6C19.2172 18.645 19.6468 18.5656 20.0283 18.3713C20.4097 18.1771 20.7266 17.8763 20.9405 17.5056C21.1546 17.135 21.2567 16.7103 21.2342 16.2829C21.2117 15.8555 21.0657 15.4438 20.8138 15.0978L19.9671 13.9344C19.6657 13.5171 19.5046 13.0148 19.5071 12.5C19.507 11.9866 19.6696 11.4864 19.9716 11.0711L20.8182 9.90778C21.0701 9.56175 21.2162 9.15007 21.2386 8.72267C21.2611 8.29528 21.1591 7.87054 20.9449 7.5C20.731 7.12923 20.4141 6.82849 20.0327 6.63423C19.6513 6.43997 19.2217 6.36053 18.796 6.40556L17.366 6.55778C16.8554 6.61141 16.3408 6.50212 15.896 6.24556C15.4531 5.98825 15.1031 5.59736 14.896 5.12889L14.3071 3.81444C14.1334 3.42317 13.8499 3.09072 13.4909 2.8574C13.132 2.62408 12.713 2.49993 12.2849 2.5C11.8568 2.49993 11.4379 2.62408 11.0789 2.8574C10.72 3.09072 10.4364 3.42317 10.2627 3.81444L9.67825 5.12889C9.47117 5.59736 9.12112 5.98825 8.67825 6.24556C8.23346 6.50212 7.71891 6.61141 7.20825 6.55778L5.7738 6.40556C5.34813 6.36053 4.91854 6.43997 4.53712 6.63423C4.15569 6.82849 3.83882 7.12923 3.62491 7.5C3.41073 7.87054 3.30869 8.29528 3.33118 8.72267C3.35366 9.15007 3.4997 9.56175 3.75158 9.90778L4.59824 11.0711C4.90019 11.4864 5.06278 11.9866 5.06269 12.5C5.06278 13.0134 4.90019 13.5137 4.59824 13.9289L3.75158 15.0922C3.4997 15.4382 3.35366 15.8499 3.33118 16.2773C3.30869 16.7047 3.41073 17.1295 3.62491 17.5C3.83903 17.8706 4.15594 18.1712 4.53731 18.3654C4.91868 18.5596 5.34816 18.6392 5.7738 18.5944L7.2038 18.4422C7.71447 18.3886 8.22902 18.4979 8.6738 18.7544C9.11833 19.011 9.47001 19.402 9.67825 19.8711Z" stroke="#AFAFAF" stroke-linecap="round" stroke-linejoin="round"/>
<path d="M12.2831 15.5C13.94 15.5 15.2831 14.1569 15.2831 12.5C15.2831 10.8431 13.94 9.5 12.2831 9.5C10.6263 9.5 9.28312 10.8431 9.28312 12.5C9.28312 14.1569 10.6263 15.5 12.2831 15.5Z" stroke="#AFAFAF" stroke-linecap="round" stroke-linejoin="round"/>
</g>
</g>
</svg>
