<svg width="47" height="47" viewBox="0 0 47 47" fill="none" xmlns="http://www.w3.org/2000/svg">
<g filter="url(#filter0_b_2982_4567)">
<path d="M1.28125 23.5C1.28125 17.9177 1.28125 15.1266 1.9702 12.8554C3.52141 7.74182 7.52307 3.74016 12.6367 2.18895C14.9079 1.5 17.699 1.5 23.2812 1.5C28.8635 1.5 31.6546 1.5 33.9258 2.18895C39.0394 3.74016 43.0411 7.74182 44.5923 12.8554C45.2812 15.1266 45.2812 17.9177 45.2812 23.5C45.2812 29.0823 45.2812 31.8734 44.5923 34.1446C43.0411 39.2582 39.0394 43.2598 33.9258 44.811C31.6546 45.5 28.8635 45.5 23.2812 45.5C17.699 45.5 14.9079 45.5 12.6367 44.811C7.52307 43.2598 3.52141 39.2582 1.9702 34.1446C1.28125 31.8734 1.28125 29.0823 1.28125 23.5Z" fill="#808080" fill-opacity="0.1" style="mix-blend-mode:luminosity"/>
<path d="M1.49173 12.7103C0.781188 15.0527 0.781209 17.9109 0.781249 23.3758L0.78125 23.5L0.781249 23.6242C0.781209 29.0891 0.781188 31.9473 1.49173 34.2897C3.09141 39.5631 7.21813 43.6898 12.4916 45.2895C14.8339 46.0001 17.6922 46 23.157 46H23.2812H23.4055C28.8703 46 31.7286 46.0001 34.0709 45.2895C39.3444 43.6898 43.4711 39.5631 45.0708 34.2897C45.7813 31.9473 45.7813 29.0891 45.7812 23.6243V23.5V23.3757C45.7813 17.9109 45.7813 15.0527 45.0708 12.7103C43.4711 7.43688 39.3444 3.31016 34.0709 1.71048C31.7286 0.999938 28.8703 0.999959 23.4055 0.999999L23.2812 1L23.157 0.999999C17.6922 0.999959 14.8339 0.999938 12.4916 1.71048C7.21813 3.31016 3.09141 7.43688 1.49173 12.7103Z" stroke="url(#paint0_linear_2982_4567)"/>
<path d="M20.6782 30.8711L21.2627 32.1856C21.4364 32.5768 21.72 32.9093 22.0789 33.1426C22.4379 33.3759 22.8568 33.5001 23.2849 33.5C23.713 33.5001 24.132 33.3759 24.4909 33.1426C24.8499 32.9093 25.1334 32.5768 25.3071 32.1856L25.8916 30.8711C26.0996 30.4047 26.4496 30.0159 26.8916 29.76C27.3364 29.5034 27.8509 29.3941 28.3616 29.4478L29.7916 29.6C30.2172 29.645 30.6468 29.5656 31.0283 29.3713C31.4097 29.1771 31.7266 28.8763 31.9405 28.5056C32.1546 28.135 32.2567 27.7103 32.2342 27.2829C32.2117 26.8555 32.0657 26.4438 31.8138 26.0978L30.9671 24.9344C30.6657 24.5171 30.5046 24.0148 30.5071 23.5C30.507 22.9866 30.6696 22.4864 30.9716 22.0711L31.8182 20.9078C32.0701 20.5618 32.2162 20.1501 32.2386 19.7227C32.2611 19.2953 32.1591 18.8705 31.9449 18.5C31.731 18.1292 31.4141 17.8285 31.0327 17.6342C30.6513 17.44 30.2217 17.3605 29.796 17.4056L28.366 17.5578C27.8554 17.6114 27.3408 17.5021 26.896 17.2456C26.4531 16.9883 26.1031 16.5974 25.896 16.1289L25.3071 14.8144C25.1334 14.4232 24.8499 14.0907 24.4909 13.8574C24.132 13.6241 23.713 13.4999 23.2849 13.5C22.8568 13.4999 22.4379 13.6241 22.0789 13.8574C21.72 14.0907 21.4364 14.4232 21.2627 14.8144L20.6782 16.1289C20.4712 16.5974 20.1211 16.9883 19.6782 17.2456C19.2335 17.5021 18.7189 17.6114 18.2082 17.5578L16.7738 17.4056C16.3481 17.3605 15.9185 17.44 15.5371 17.6342C15.1557 17.8285 14.8388 18.1292 14.6249 18.5C14.4107 18.8705 14.3087 19.2953 14.3312 19.7227C14.3537 20.1501 14.4997 20.5618 14.7516 20.9078L15.5982 22.0711C15.9002 22.4864 16.0628 22.9866 16.0627 23.5C16.0628 24.0134 15.9002 24.5137 15.5982 24.9289L14.7516 26.0922C14.4997 26.4382 14.3537 26.8499 14.3312 27.2773C14.3087 27.7047 14.4107 28.1295 14.6249 28.5C14.839 28.8706 15.1559 29.1712 15.5373 29.3654C15.9187 29.5596 16.3482 29.6392 16.7738 29.5944L18.2038 29.4422C18.7145 29.3886 19.229 29.4979 19.6738 29.7544C20.1183 30.011 20.47 30.402 20.6782 30.8711Z" stroke="#AFAFAF" stroke-linecap="round" stroke-linejoin="round"/>
<path d="M23.2831 26.5C24.94 26.5 26.2831 25.1569 26.2831 23.5C26.2831 21.8431 24.94 20.5 23.2831 20.5C21.6263 20.5 20.2831 21.8431 20.2831 23.5C20.2831 25.1569 21.6263 26.5 23.2831 26.5Z" stroke="#AFAFAF" stroke-linecap="round" stroke-linejoin="round"/>
</g>
<defs>
<filter id="filter0_b_2982_4567" x="-99.7188" y="-99.5" width="246" height="246" filterUnits="userSpaceOnUse" color-interpolation-filters="sRGB">
<feFlood flood-opacity="0" result="BackgroundImageFix"/>
<feGaussianBlur in="BackgroundImageFix" stdDeviation="50"/>
<feComposite in2="SourceAlpha" operator="in" result="effect1_backgroundBlur_2982_4567"/>
<feBlend mode="normal" in="SourceGraphic" in2="effect1_backgroundBlur_2982_4567" result="shape"/>
</filter>
<linearGradient id="paint0_linear_2982_4567" x1="1.28125" y1="23.5" x2="45.2276" y2="25.035" gradientUnits="userSpaceOnUse">
<stop stop-color="white" stop-opacity="0.1"/>
<stop offset="0.505" stop-color="white" stop-opacity="0.4"/>
<stop offset="1" stop-color="white" stop-opacity="0.1"/>
</linearGradient>
</defs>
</svg>
