<svg width="46" height="46" viewBox="0 0 46 46" fill="none" xmlns="http://www.w3.org/2000/svg">
<g filter="url(#filter0_b_3128_49914)">
<path d="M1 23C1 17.4177 1 14.6266 1.68895 12.3554C3.24016 7.24182 7.24182 3.24016 12.3554 1.68895C14.6266 1 17.4177 1 23 1C28.5823 1 31.3734 1 33.6446 1.68895C38.7582 3.24016 42.7598 7.24182 44.311 12.3554C45 14.6266 45 17.4177 45 23C45 28.5823 45 31.3734 44.311 33.6446C42.7598 38.7582 38.7582 42.7598 33.6446 44.311C31.3734 45 28.5823 45 23 45C17.4177 45 14.6266 45 12.3554 44.311C7.24182 42.7598 3.24016 38.7582 1.68895 33.6446C1 31.3734 1 28.5823 1 23Z" fill="#808080" fill-opacity="0.1" style="mix-blend-mode:luminosity"/>
<path d="M1.21048 12.2103C0.499938 14.5527 0.499959 17.4109 0.499999 22.8758L0.5 23L0.499999 23.1242C0.499959 28.5891 0.499938 31.4473 1.21048 33.7897C2.81016 39.0631 6.93688 43.1898 12.2103 44.7895C14.5527 45.5001 17.4109 45.5 22.8757 45.5H23H23.1243C28.5891 45.5 31.4473 45.5001 33.7897 44.7895C39.0631 43.1898 43.1898 39.0631 44.7895 33.7897C45.5001 31.4473 45.5 28.5891 45.5 23.1243V23V22.8757C45.5 17.4109 45.5001 14.5527 44.7895 12.2103C43.1898 6.93688 39.0631 2.81016 33.7897 1.21048C31.4473 0.499938 28.5891 0.499959 23.1242 0.499999L23 0.5L22.8758 0.499999C17.4109 0.499959 14.5527 0.499938 12.2103 1.21048C6.93688 2.81016 2.81016 6.93688 1.21048 12.2103Z" stroke="url(#paint0_linear_3128_49914)"/>
<path d="M13.0488 14L20.7705 24.3247L13 32.7192H14.7488L21.5519 25.3697L27.0486 32.7192H33L24.8438 21.8137L32.0765 14H30.3277L24.0624 20.7687L19.0001 14H13.0488ZM15.6206 15.2882H18.3546L30.4278 31.4308H27.6937L15.6206 15.2882Z" fill="white"/>
</g>
<defs>
<filter id="filter0_b_3128_49914" x="-100" y="-100" width="246" height="246" filterUnits="userSpaceOnUse" color-interpolation-filters="sRGB">
<feFlood flood-opacity="0" result="BackgroundImageFix"/>
<feGaussianBlur in="BackgroundImageFix" stdDeviation="50"/>
<feComposite in2="SourceAlpha" operator="in" result="effect1_backgroundBlur_3128_49914"/>
<feBlend mode="normal" in="SourceGraphic" in2="effect1_backgroundBlur_3128_49914" result="shape"/>
</filter>
<linearGradient id="paint0_linear_3128_49914" x1="1" y1="23" x2="44.9464" y2="24.535" gradientUnits="userSpaceOnUse">
<stop stop-color="white" stop-opacity="0.1"/>
<stop offset="0.505" stop-color="white" stop-opacity="0.4"/>
<stop offset="1" stop-color="white" stop-opacity="0.1"/>
</linearGradient>
</defs>
</svg>
